<svg xmlns="http://www.w3.org/2000/svg" xmlns:xlink="http://www.w3.org/1999/xlink" width="2171.7" height="246" viewBox="0 0 2171.7 246">
  <defs>
    <clipPath id="clip-heartland_pos_logo">
      <rect width="2171.7" height="246"/>
    </clipPath>
  </defs>
  <g id="heartland_pos_logo" data-name="heartland|pos_logo" clip-path="url(#clip-heartland_pos_logo)">
    <g id="heartland_l" transform="translate(631 -14.02)">
      <path id="Path_1" data-name="Path 1" d="M-189.608,766.93h-19.746V726.5h-35.137v40.4H-264.42V674.3h19.842v36.723h34.667V674.364h20.327Z" transform="translate(264.42 -586.933)" fill="#c7102e"/>
      <path id="Path_2" data-name="Path 2" d="M783.155,674.21h19.23v93.018H783.552v-8.143c-.425-.041-.658-.11-.69-.059-5.168,8.349-13.2,10.378-22.141,9.373-13.083-1.476-20.921-9.528-23.279-23.635-1.558-9.313-.941-18.526,3.062-27.259,5.735-12.526,18.681-18.841,31.413-15.391a20.066,20.066,0,0,1,11.237,7.988Zm.457,59.686c0-4.378-.457-8.683-2.417-12.654a12,12,0,0,0-11.488-7.2,11.09,11.09,0,0,0-10.913,7.216,36.1,36.1,0,0,0-2.5,9.4c-.768,6.4-.512,12.768,2.4,18.736a11.41,11.41,0,0,0,7.481,6.521c5.246,1.371,11.169-1.435,14-6.612,2.6-4.812,3.386-10.022,3.414-15.4Z" transform="translate(-279.182 -586.884)" fill="#c7102e"/>
      <path id="Path_3" data-name="Path 3" d="M-24.325,770.646h-44c0,4.332.356,8.006,2.088,11.425,2.235,4.405,6.539,6.585,12.009,6.151s8.335-2.618,10.054-7.769c.114-.352.242-.695.379-1.078h17.036c-.791,8.043-4.209,14.427-11.562,17.717a38.8,38.8,0,0,1-33.977-.457c-6.37-3.071-10.008-8.582-11.932-15.158a50.483,50.483,0,0,1,.43-30.787c4.25-12.695,14.7-18.768,26.5-19.755,9.569-.786,18.133,1.677,24.773,9.094,4.57,5.132,6.585,11.425,7.453,18.074C-24.535,761.986-24.58,765.948-24.325,770.646ZM-43.6,758.161c.352-8.614-3.916-14.066-10.968-14.166-7.449-.105-12.5,5.653-12.338,14.166Z" transform="translate(167.762 -617.61)" fill="#c7102e"/>
      <path id="Path_4" data-name="Path 4" d="M649.739,797.833H630.783V757.912c0-.992,0-1.983-.073-2.966-.457-5.662-3.107-8.92-7.869-9.738-5.484-.914-10.661,1.494-12.494,6.494a28.115,28.115,0,0,0-1.5,9.14c-.164,11.424-.064,22.849-.064,34.274v2.66H589.55V733.235h17.9c.164,2.847.329,5.772.5,8.683l.539.4a3.165,3.165,0,0,1,.265-.877c6.448-9.427,19.9-12.928,30.257-7.833a17.836,17.836,0,0,1,10.511,16.451c.361,15.679.324,31.367.457,47.069A3.14,3.14,0,0,1,649.739,797.833Z" transform="translate(-199.302 -617.868)" fill="#c7102e"/>
      <path id="Path_5" data-name="Path 5" d="M467.744,751.25H449.606c-.142-5.785,1.723-10.588,6.137-14.3a25.262,25.262,0,0,1,12.339-5.534,47.266,47.266,0,0,1,18.371.4c11.607,2.637,17.137,9.537,17.365,21.771.11,5.859,0,11.722.032,17.58.055,8.737-.48,17.507,1.558,26.308H488.153c-.279-2.646-.562-5.342-.864-8.2a4.737,4.737,0,0,0-.681.626c-5.529,7.554-13.175,9.894-22.113,8.852-9.683-1.129-14.957-5.351-17.114-13.531a21.542,21.542,0,0,1,7.741-22.8c5.027-3.779,10.885-5.328,17-5.941,4.446-.457,8.929-.585,13.933-.914-.361-2.842-.407-5.744-1.156-8.45-.941-3.377-5.3-5.612-9.245-5.255a7.89,7.89,0,0,0-7.549,6.7C467.949,749.38,467.881,750.212,467.744,751.25Zm18.393,16.095c-6.032-.594-11.8-.388-16.908,3.2a8.963,8.963,0,0,0-2.957,11.187c1.741,3.976,5.648,5.877,10.15,5.027a10.364,10.364,0,0,0,7.842-6.284c1.947-4.117,1.96-8.509,1.874-13.129Z" transform="translate(-121.69 -617.558)" fill="#c7102e"/>
      <path id="Path_6" data-name="Path 6" d="M99.472,755.317a61.74,61.74,0,0,0-.745-7.17c-.85-3.976-5.274-6.677-9.7-6.22a7.913,7.913,0,0,0-7.558,7.7c-.041.512-.091,1.024-.16,1.755H65.277c-.667,0-1.339-.059-2.148-.1-.192-6.169,1.96-11.1,6.759-14.8a26.87,26.87,0,0,1,13.869-5.31c6.489-.7,12.919-.526,19.17,1.572,9.181,3.076,13.929,9.318,14.217,19.015.187,6.16.073,12.339.091,18.5.023,9.1-.334,18.229,1.627,27.328H101.625c-.288-2.742-.562-5.42-.845-8.162-.288.169-.457.21-.535.32-7.037,9.83-17.735,10.968-28.474,7.769-7.686-2.285-12.636-11.2-11.548-19.892,1.344-10.7,8.175-17.891,19.938-20.107C86.343,756.317,92.677,756.052,99.472,755.317Zm.265,12.338a23.959,23.959,0,0,0-14.774,1.622,13.915,13.915,0,0,0-3.656,2.655,8.971,8.971,0,0,0-1.22,10.561,8.811,8.811,0,0,0,9.208,4.478,10.657,10.657,0,0,0,8.683-6.855c1.677-4.021,1.741-8.258,1.759-12.466Z" transform="translate(88.214 -617.617)" fill="#c7102e"/>
      <path id="Path_8" data-name="Path 8" d="M302.95,700.029l18.736-6.969v19.6h15.4v12.722H321.682v1.974q0,14.5.023,29c0,6.133,1.746,7.91,7.81,8.084,2.335.068,4.675,0,7.124,0a4.806,4.806,0,0,1,.128.781v11.648c-8.249,1.91-16.451,3.368-24.677.42-6.082-2.175-9.094-6.951-9.14-14.331-.073-12.709-.027-25.417-.032-38.126Z" transform="translate(-43.65 -597.12)" fill="#c7102e"/>
      <path id="Path_9" data-name="Path 9" d="M392.51,674.3h18.544v92.571H392.51Z" transform="translate(-92.306 -586.933)" fill="#c7102e"/>
      <path id="Path_11" data-name="Path 11" d="M205.14,798.854V733.876h17.1v11.159l.644.352c3.957-9.884,11.831-12.444,21.542-12.069v17.2c-2.066,0-4.177-.082-6.279,0-9.007.416-13.732,5.132-13.847,14.13-.142,10.511-.05,21.021-.059,31.509v2.669Z" transform="translate(9.44 -618.962)" fill="#c7102e"/>
      <path id="Path_16" data-name="Path 16" d="M1010.979,602.14V484.325c0-.4-.012-.75,0-1.165h.522V602.14Z" transform="translate(-427.799 -405.643)" fill="#4a4a4a"/>
    </g>
    <path id="Path_18" data-name="Path 18" d="M29.154-48.762V-76.368H44.892a42.416,42.416,0,0,1,6.708.516,15.609,15.609,0,0,1,5.676,2A10.893,10.893,0,0,1,61.21-69.66a14.736,14.736,0,0,1,1.484,7.1,14.736,14.736,0,0,1-1.484,7.1,10.893,10.893,0,0,1-3.934,4.193,15.609,15.609,0,0,1-5.676,2,42.416,42.416,0,0,1-6.708.516ZM8.9-92.106V0H29.154V-33.024H50.439A38.363,38.363,0,0,0,65.145-35.54a27.514,27.514,0,0,0,9.868-6.643,25.435,25.435,0,0,0,5.547-9.482,35.029,35.029,0,0,0,1.742-10.9A34.834,34.834,0,0,0,80.56-73.53a25.521,25.521,0,0,0-5.547-9.417,27.514,27.514,0,0,0-9.868-6.644,38.363,38.363,0,0,0-14.706-2.515Zm102.3,46.44A50.4,50.4,0,0,1,112.552-57.4a31.089,31.089,0,0,1,4.322-10.127,21.921,21.921,0,0,1,7.74-7.095,23.643,23.643,0,0,1,11.61-2.645,23.643,23.643,0,0,1,11.61,2.645,21.921,21.921,0,0,1,7.74,7.095A31.09,31.09,0,0,1,159.9-57.4a50.4,50.4,0,0,1,1.354,11.739A46.887,46.887,0,0,1,159.9-34.378a30.505,30.505,0,0,1-4.322,9.868,22.149,22.149,0,0,1-7.74,7.031,23.643,23.643,0,0,1-11.61,2.644,23.643,23.643,0,0,1-11.61-2.644,22.149,22.149,0,0,1-7.74-7.031,30.5,30.5,0,0,1-4.322-9.868A46.887,46.887,0,0,1,111.2-45.666Zm-20.253,0a55.629,55.629,0,0,0,3.1,18.77,44.827,44.827,0,0,0,8.9,15.158A40.772,40.772,0,0,0,117.2-1.613a47.23,47.23,0,0,0,19.027,3.677,47.108,47.108,0,0,0,19.092-3.677,40.915,40.915,0,0,0,14.19-10.126,44.828,44.828,0,0,0,8.9-15.158,55.63,55.63,0,0,0,3.1-18.77,57.552,57.552,0,0,0-3.1-19.157,46.016,46.016,0,0,0-8.9-15.415,40.845,40.845,0,0,0-14.19-10.32A46.4,46.4,0,0,0,136.224-94.3,46.522,46.522,0,0,0,117.2-90.558a40.7,40.7,0,0,0-14.255,10.32,46.016,46.016,0,0,0-8.9,15.415A57.551,57.551,0,0,0,90.945-45.666ZM209.109-30.573H189.5a30.42,30.42,0,0,0,3.1,14.706A28.994,28.994,0,0,0,201.3-5.676,37.15,37.15,0,0,0,213.947.193a58.191,58.191,0,0,0,14.77,1.871A56.712,56.712,0,0,0,245.294-.129a35.053,35.053,0,0,0,12-6.128,25.5,25.5,0,0,0,7.289-9.352,28.145,28.145,0,0,0,2.451-11.739q0-7.74-3.289-12.707a27.478,27.478,0,0,0-7.8-7.934,34.309,34.309,0,0,0-9.095-4.321q-4.579-1.355-7.16-1.87-8.643-2.193-14-3.612A51.916,51.916,0,0,1,217.3-60.63a9.211,9.211,0,0,1-4.064-3.1,8.278,8.278,0,0,1-1.032-4.386,8.66,8.66,0,0,1,1.29-4.9,11.2,11.2,0,0,1,3.29-3.225,13.113,13.113,0,0,1,4.451-1.806,23.736,23.736,0,0,1,4.9-.516,34.544,34.544,0,0,1,6.9.645,16.634,16.634,0,0,1,5.611,2.193,11.4,11.4,0,0,1,3.935,4.257,16.285,16.285,0,0,1,1.742,6.837h19.608a28.287,28.287,0,0,0-3.031-13.61,26.429,26.429,0,0,0-8.191-9.223,34.588,34.588,0,0,0-11.8-5.225A58.6,58.6,0,0,0,227.04-94.3a47.193,47.193,0,0,0-12.384,1.677,34.574,34.574,0,0,0-11.094,5.16,27.469,27.469,0,0,0-7.934,8.708A24.117,24.117,0,0,0,192.6-66.435a22.521,22.521,0,0,0,2.387,10.771,22.781,22.781,0,0,0,6.257,7.417,34.571,34.571,0,0,0,8.772,4.838,88.2,88.2,0,0,0,10.062,3.16q5.031,1.419,9.933,2.58a62.444,62.444,0,0,1,8.772,2.709,18.927,18.927,0,0,1,6.257,3.87,8.08,8.08,0,0,1,2.387,6.063,8.9,8.9,0,0,1-1.806,5.741,12.665,12.665,0,0,1-4.515,3.547A20.2,20.2,0,0,1,235.3-14a40.347,40.347,0,0,1-5.805.451,30.788,30.788,0,0,1-7.74-.968,19.266,19.266,0,0,1-6.514-2.967,14.654,14.654,0,0,1-4.451-5.225A16.893,16.893,0,0,1,209.109-30.573Z" transform="translate(1266 164)" fill="#020202"/>
  </g>
</svg>
