<svg xmlns="http://www.w3.org/2000/svg" width="30.558" height="27.95" viewBox="0 0 30.558 27.95">
  <g id="noun-webhooks-186514" transform="translate(-2.426 -6.503)">
    <g id="Group_2" data-name="Group 2" transform="translate(2.426 6.503)">
      <g id="Group_1" data-name="Group 1" transform="translate(0)">
        <path id="Path_1" data-name="Path 1" d="M26.243,66.868H11.209v1.61a3.534,3.534,0,1,1-5.493-3.508L4.7,63.528h0a5.288,5.288,0,1,0,8.254,5.218H26.171a1.76,1.76,0,1,0,.072-1.878Z" transform="translate(-2.426 -45.191)" fill="#0a2236" fill-rule="evenodd"/>
        <path id="Path_2" data-name="Path 2" d="M13.657,28.442a1.765,1.765,0,0,1,1.627-1.1l6.628-11.48h0a5.284,5.284,0,1,1,8.629-4.531h0l-1.754.154a3.521,3.521,0,1,0-5.372,3.294l.969.56-7.507,13h0a1.8,1.8,0,1,1-3.22.105Z" transform="translate(-9.936 -6.503)" fill="#0a2236" fill-rule="evenodd"/>
        <path id="Path_3" data-name="Path 3" d="M46.169,20.981,53.6,33.853l.885-.511.015.026.022-.013a3.487,3.487,0,1,1,.23,6.189L54,41.132h0a5.264,5.264,0,1,0,.4-9.647h0L47.811,20.063a1.761,1.761,0,1,0-1.641.918Z" transform="translate(-30.98 -13.955)" fill="#0a2236" fill-rule="evenodd"/>
      </g>
    </g>
  </g>
</svg>
