<svg xmlns="http://www.w3.org/2000/svg" xmlns:xlink="http://www.w3.org/1999/xlink" width="71" height="42" viewBox="0 0 71 42">
  <defs>
    <clipPath id="clip-Custom_Size_1">
      <rect width="71" height="42"/>
    </clipPath>
  </defs>
  <g id="Custom_Size_1" data-name="Custom Size – 1" clip-path="url(#clip-Custom_Size_1)">
    <rect width="71" height="42" fill="#fff"/>
    <g id="Menu_Icon_Assign" data-name="Menu Icon_Assign" transform="translate(-6717.006 -1516.988)">
      <path id="Path_1505" data-name="Path 1505" d="M-39.732,149.955a6.715,6.715,0,0,0-.16-1.478,6.9,6.9,0,0,0-1.862-3.4,6.872,6.872,0,0,0-4.881-2.022l-8.872,0a6.9,6.9,0,0,0-4.871,2.018,6.9,6.9,0,0,0-.006,9.761,6.858,6.858,0,0,0,4.87,2.025h7.321a.493.493,0,0,0,.353-.146.493.493,0,0,0,0-.7l-.139-.139a8.3,8.3,0,0,1-1.8-2.663.493.493,0,0,0-.457-.3l-5.268,0a2.96,2.96,0,0,1-2.96-2.96,2.96,2.96,0,0,1,2.96-2.96l8.9,0a2.958,2.958,0,0,1,2.956,2.956,2.021,2.021,0,0,0,1.959,1.959,1.972,1.972,0,0,0,1.29-.481A1.972,1.972,0,0,0-39.732,149.955Z" transform="translate(6796.409 1387.939)" fill="#152a3f"/>
      <path id="Path_1506" data-name="Path 1506" d="M192.773,149.9a6.9,6.9,0,0,0-6.9-6.9l-7.31,0a.495.495,0,0,0-.342.851l.129.129a8.283,8.283,0,0,1,1.792,2.663.493.493,0,0,0,.457.3l5.247,0a2.96,2.96,0,1,1,0,5.919l-6.537,0-.059,0-2.28-.007a2.958,2.958,0,0,1-2.956-2.956,2.021,2.021,0,0,0-1.959-1.959,1.966,1.966,0,0,0-1.966,1.966,6.843,6.843,0,0,0,.418,2.371c.038.108.084.209.126.314s.094.206.139.307.1.2.15.3l.15.261c.1.174.216.342.335.509a6.879,6.879,0,0,0,.471.568l.244.244.021.021.234.185c.08.073.178.136.268.227l.118.118.275.206.132.091.244.16.038.038a6.9,6.9,0,0,0,3.545.98h8.876A6.9,6.9,0,0,0,192.773,149.9Z" transform="translate(6577.354 1387.995)" fill="#152a3f"/>
    </g>
  </g>
</svg>
