<svg xmlns="http://www.w3.org/2000/svg" xmlns:xlink="http://www.w3.org/1999/xlink" width="71" height="42" viewBox="0 0 71 42">
  <defs>
    <clipPath id="clip-Custom_Size_1">
      <rect width="71" height="42"/>
    </clipPath>
  </defs>
  <g id="Custom_Size_1" data-name="Custom Size – 1" clip-path="url(#clip-Custom_Size_1)">
    <rect width="71" height="42" fill="#fff"/>
    <g id="Menu_Icon_Assign_with_Shelf" data-name="Menu Icon_Assign with Shelf" transform="translate(-6717 -1697.715)">
      <path id="Path_1505" data-name="Path 1505" d="M-39.437,150.045a6.8,6.8,0,0,0-.162-1.5,6.993,6.993,0,0,0-1.886-3.447,6.962,6.962,0,0,0-4.944-2.048l-8.988,0a6.992,6.992,0,0,0-4.934,2.045,6.992,6.992,0,0,0-.006,9.888,6.947,6.947,0,0,0,4.934,2.052h7.416a.5.5,0,0,0,.357-.148.5.5,0,0,0,0-.706l-.141-.141a8.407,8.407,0,0,1-1.822-2.7.5.5,0,0,0-.463-.307l-5.336,0a3,3,0,0,1-3-3,3,3,0,0,1,3-3l9.016,0a3,3,0,0,1,2.995,2.995,2.048,2.048,0,0,0,1.985,1.985,2,2,0,0,0,1.307-.487A2,2,0,0,0-39.437,150.045Z" transform="translate(6796.402 1568.666)" fill="#152a3f"/>
      <path id="Path_1506" data-name="Path 1506" d="M193.068,149.989A6.993,6.993,0,0,0,186.076,143l-7.406,0a.5.5,0,0,0-.346.862l.131.131a8.39,8.39,0,0,1,1.815,2.7.5.5,0,0,0,.463.307l5.315,0a3,3,0,1,1,0,6l-6.622,0-.06,0-2.31-.007a3,3,0,0,1-2.995-2.995A2.048,2.048,0,0,0,172.077,148,1.991,1.991,0,0,0,170.085,150a6.933,6.933,0,0,0,.424,2.4c.039.109.085.212.127.318s.1.208.141.311.1.2.152.3l.152.265c.106.177.219.346.339.516a6.964,6.964,0,0,0,.477.576l.247.247.021.021.237.187c.081.074.18.138.272.23l.12.12.279.208.134.092.247.162.039.039a6.993,6.993,0,0,0,3.592.992h8.991A6.992,6.992,0,0,0,193.068,149.989Z" transform="translate(6577.522 1568.722)" fill="#152a3f"/>
      <rect id="Rectangle_5014" data-name="Rectangle 5014" width="10.685" height="3.288" transform="translate(6760.301 1722.273)" fill="#fafafa"/>
      <path id="Path_870" data-name="Path 870" d="M63.128,0V.872H51.269V0H49.951V14.3h1.318v-.872h11.86V14.3h1.318V0Zm0,9.937H51.269V8.891h11.86V9.937Zm0-4.533H51.269V4.359h11.86V5.4Z" transform="translate(6709.562 1719.122)" fill="#152a3f"/>
      <path id="패스_870_-_윤곽선" data-name="패스 870 - 윤곽선" d="M49.451-.5h1.993V.38H62.775V-.5h1.993V14.618H62.775v-.88H51.444v.88H49.451Zm1.332.685h-.672V13.933h.672v-.88H63.436v.88h.672V.185h-.672v.88H50.783Zm0,3.716H63.436V5.641H50.783Zm11.992.685H51.444v.372H62.775ZM50.783,8.477H63.436v1.741H50.783Zm11.992.685H51.444v.372H62.775Z" transform="translate(6709.651 1719.211)" fill="#fafafa"/>
    </g>
  </g>
</svg>
