<svg xmlns="http://www.w3.org/2000/svg" xmlns:xlink="http://www.w3.org/1999/xlink" width="71" height="42" viewBox="0 0 71 42">
  <defs>
    <clipPath id="clip-Custom_Size_1">
      <rect width="71" height="42"/>
    </clipPath>
  </defs>
  <g id="Custom_Size_1" data-name="Custom Size – 1" clip-path="url(#clip-Custom_Size_1)">
    <rect width="71" height="42" fill="#fff"/>
    <g id="Menu_Icon_Batch_Assign" data-name="Menu Icon_Batch Assign" transform="translate(-6717.213 -1638)">
      <g id="Group_3680" data-name="Group 3680" transform="translate(6734.213 1652)">
        <g id="Group_3677" data-name="Group 3677" transform="translate(0 0.003)">
          <g id="Group_3676" data-name="Group 3676">
            <path id="Path_1518" data-name="Path 1518" d="M-39.541,150.014a6.771,6.771,0,0,0-.162-1.491,6.961,6.961,0,0,0-1.877-3.431,6.931,6.931,0,0,0-4.922-2.039l-8.947,0a6.961,6.961,0,0,0-4.912,2.036,6.96,6.96,0,0,0-.006,9.844,6.916,6.916,0,0,0,4.911,2.043h7.383a.5.5,0,0,0,.356-.148.5.5,0,0,0,0-.7l-.141-.141a8.369,8.369,0,0,1-1.814-2.686.5.5,0,0,0-.461-.306l-5.312,0a2.985,2.985,0,0,1-2.985-2.985,2.985,2.985,0,0,1,2.985-2.985l8.975,0a2.983,2.983,0,0,1,2.981,2.981,2.038,2.038,0,0,0,1.976,1.976,1.989,1.989,0,0,0,1.3-.485A1.989,1.989,0,0,0-39.541,150.014Z" transform="translate(62.403 -143.053)" fill="#152a3f"/>
          </g>
        </g>
        <g id="Group_3679" data-name="Group 3679" transform="translate(13.545)">
          <g id="Group_3678" data-name="Group 3678">
            <path id="Path_1519" data-name="Path 1519" d="M192.964,149.957A6.961,6.961,0,0,0,186,143l-7.372,0a.5.5,0,0,0-.345.858l.13.13a8.351,8.351,0,0,1,1.807,2.686.5.5,0,0,0,.461.306l5.291,0a2.985,2.985,0,1,1,0,5.969l-6.592,0-.06,0-2.3-.007a2.983,2.983,0,0,1-2.981-2.981,2.039,2.039,0,0,0-1.976-1.976,1.982,1.982,0,0,0-1.983,1.983,6.9,6.9,0,0,0,.422,2.391c.039.109.084.211.127.316s.095.207.141.309.1.2.151.3l.151.264c.105.176.218.345.338.513a6.929,6.929,0,0,0,.475.573l.246.246.021.021.236.186c.081.074.179.137.271.229l.12.12.278.207.134.091.246.162.039.039a6.961,6.961,0,0,0,3.575.988H186A6.961,6.961,0,0,0,192.964,149.957Z" transform="translate(-170.085 -142.993)" fill="#152a3f"/>
          </g>
        </g>
      </g>
      <g id="Path_1515" data-name="Path 1515" transform="translate(6761.901 1640.677)" fill="#152a3f">
        <path d="M 7.042810916900635 26.29136848449707 C 6.861580848693848 26.29136848449707 6.681840896606445 26.24631881713867 6.523011207580566 26.16109848022461 L 0.09230096638202667 22.73156929016113 C -0.2752590179443359 22.53605842590332 -0.5042290091514587 22.13969993591309 -0.4905590415000916 21.72204971313477 C -0.4763690233230591 21.30301856994629 -0.2201590240001678 20.92263984680176 0.1621709764003754 20.75239944458008 L 6.593831062316895 17.88407897949219 C 6.735950946807861 17.82054901123047 6.887180805206299 17.78824996948242 7.042911052703857 17.78824996948242 C 7.198990821838379 17.78824996948242 7.350310802459717 17.8206901550293 7.49268102645874 17.88466835021973 L 13.92362117767334 20.75251960754395 C 14.30437088012695 20.92178916931152 14.5610408782959 21.30136871337891 14.57700061798096 21.71932983398438 C 14.59052085876465 22.13971900939941 14.36158084869385 22.53594017028809 13.99386119842529 22.73172950744629 L 7.561990737915039 26.16170883178711 C 7.40394115447998 26.24637985229492 7.22412109375 26.29136848449707 7.042810916900635 26.29136848449707 Z" stroke="none"/>
        <path d="M 7.042913436889648 18.28824424743652 C 6.959383487701416 18.28824424743652 6.87575101852417 18.30573844909668 6.797481060028076 18.34072875976562 L 0.3655509948730469 21.20916938781738 C 0.1556005477905273 21.30264854431152 0.01695060729980469 21.50841903686523 0.0091705322265625 21.73839950561523 C 0.001661300659179688 21.96792984008789 0.1245508193969727 22.1823902130127 0.3275814056396484 22.29039001464844 L 6.759420871734619 25.72052001953125 C 6.937265396118164 25.81594467163086 7.149513721466064 25.81544876098633 7.326711177825928 25.72052001953125 L 13.75887107849121 22.29039001464844 C 13.96171092987061 22.1823902130127 14.08474063873291 21.96792984008789 14.07736110687256 21.73839950561523 C 14.06857109069824 21.50841903686523 13.930251121521 21.30264854431152 13.71998119354248 21.20916938781738 L 7.287731170654297 18.34072875976562 C 7.2098708152771 18.30573844909668 7.126443386077881 18.28824424743652 7.042913436889648 18.28824424743652 M 7.042911052703857 17.28823852539062 C 7.270101070404053 17.28823852539062 7.490390777587891 17.33545875549316 7.697640895843506 17.42859840393066 L 14.1272611618042 20.29586982727051 C 14.68037128448486 20.5417594909668 15.05343055725098 21.09317970275879 15.07663059234619 21.70020866394043 L 15.07684135437012 21.70625877380371 C 15.09634113311768 22.31264877319336 14.76348114013672 22.88840866088867 14.22884082794189 23.17306900024414 L 7.797260761260986 26.60289001464844 C 7.567690849304199 26.72587966918945 7.306231021881104 26.79136848449707 7.042810916900635 26.79136848449707 C 6.779360771179199 26.79136848449707 6.517870903015137 26.72577857971191 6.286601066589355 26.6016788482666 L -0.1429891586303711 23.17274856567383 C -0.6771888732910156 22.88858985900879 -1.010149002075195 22.31254005432129 -0.9902992248535156 21.7056999206543 C -0.9696788787841797 21.09622001647949 -0.5971488952636719 20.54316902160645 -0.04119873046875 20.29562950134277 L 6.390181064605713 17.42743873596191 C 6.596510887145996 17.3351993560791 6.81640100479126 17.28823852539062 7.042911052703857 17.28823852539062 Z" stroke="none" fill="#fafafa"/>
      </g>
      <g id="Path_1516" data-name="Path 1516" transform="translate(6761.91 1527.141)" fill="#152a3f">
        <path d="M 7.034327507019043 142.3761138916016 C 6.854137420654297 142.3761138916016 6.674807548522949 142.331298828125 6.515737533569336 142.2465057373047 L 0.08376750349998474 138.8153839111328 C -0.1764624863862991 138.676513671875 -0.3668724894523621 138.4447784423828 -0.4524324834346771 138.1628570556641 C -0.5378925204277039 137.8813018798828 -0.5084825158119202 137.5832824707031 -0.3696224987506866 137.3237152099609 C -0.1787624955177307 136.9643096923828 0.1940375119447708 136.7402038574219 0.6025775074958801 136.7402038574219 C 0.7824875116348267 136.7402038574219 0.9618874788284302 136.7851715087891 1.121387481689453 136.8702850341797 L 7.034032344818115 140.02490234375 L 12.94765758514404 136.8702697753906 C 13.10639762878418 136.7852783203125 13.28585720062256 136.7401733398438 13.46596717834473 136.7401733398438 C 13.87370777130127 136.7401733398438 14.24662780761719 136.9637756347656 14.43918704986572 137.3237152099609 C 14.72463703155518 137.8603820800781 14.52117729187012 138.5289459228516 13.98620796203613 138.8151092529297 L 7.553557395935059 142.2464447021484 C 7.395537376403809 142.3311157226562 7.215707302093506 142.3761138916016 7.034327507019043 142.3761138916016 Z" stroke="none"/>
        <path d="M 13.46596813201904 137.2401733398438 C 13.37029266357422 137.2401733398438 13.27328395843506 137.2630767822266 13.18298721313477 137.3114166259766 L 7.034007549285889 140.5915985107422 L 0.8860177993774414 137.3114166259766 C 0.5916986465454102 137.1543884277344 0.2272558212280273 137.2658081054688 0.07125759124755859 137.5595703125 C -0.08583259582519531 137.8532104492188 0.02558708190917969 138.2175903320312 0.3190975189208984 138.3742218017578 L 6.750927448272705 141.8052825927734 C 6.928774356842041 141.9000701904297 7.140992164611816 141.9002685546875 7.318227291107178 141.8052825927734 L 13.7503776550293 138.3742218017578 C 14.04319763183594 138.2175903320312 14.15448760986328 137.8532104492188 13.99830722808838 137.5595703125 C 13.88949775695801 137.3561706542969 13.68118953704834 137.2401885986328 13.46596813201904 137.2401733398438 M 13.46596717834473 136.2401733398438 L 13.46605777740479 136.2401733398438 C 14.05854797363281 136.240234375 14.60035705566406 136.5650329589844 14.8800573348999 137.0878448486328 C 15.29523754119873 137.8684387207031 14.99954795837402 138.8401031494141 14.22203731536865 139.2559967041016 L 7.788877487182617 142.6875915527344 C 7.559337615966797 142.8106231689453 7.29782772064209 142.8761138916016 7.034327507019043 142.8761138916016 C 6.772397518157959 142.8761138916016 6.511747360229492 142.8109741210938 6.280547618865967 142.687744140625 L -0.1515722274780273 139.2565307617188 C -0.5297822952270508 139.0547027587891 -0.8065023422241211 138.7178955078125 -0.930882453918457 138.3080749511719 C -1.05516242980957 137.8986358642578 -1.012402534484863 137.4652709960938 -0.8104925155639648 137.0878601074219 C -0.5333929061889648 136.5660400390625 0.008617401123046875 136.2402038574219 0.6025676727294922 136.2402038574219 C 0.8643074035644531 136.2402038574219 1.125107765197754 136.3055419921875 1.356777191162109 136.4291534423828 L 7.03404712677002 139.4581909179688 L 12.71231746673584 136.4291076660156 C 12.94276714324951 136.3057403564453 13.20381736755371 136.2401733398438 13.46596717834473 136.2401733398438 Z" stroke="none" fill="#fafafa"/>
      </g>
      <g id="Path_1517" data-name="Path 1517" transform="translate(6761.91 1477.824)" fill="#152a3f">
        <path d="M 7.03431224822998 194.0446929931641 C 6.853512287139893 194.0446929931641 6.673812389373779 193.9995880126953 6.514642238616943 193.9142303466797 L 0.0838022455573082 190.4847564697266 C -0.1762077510356903 190.3462066650391 -0.3666677474975586 190.1145782470703 -0.4523377418518066 189.8326263427734 C -0.5379477739334106 189.5508728027344 -0.5085777640342712 189.252685546875 -0.3696277439594269 188.9929809570312 C -0.1785877496004105 188.6336822509766 0.1941322535276413 188.4097747802734 0.6024622321128845 188.4097747802734 C 0.7824922204017639 188.4097747802734 0.9619922637939453 188.4548034667969 1.12154221534729 188.5400085449219 L 7.034008026123047 191.6935119628906 L 12.94771194458008 188.5398712158203 C 13.10666179656982 188.4548492431641 13.28615188598633 188.4097595214844 13.46623229980469 188.4097595214844 C 13.87363243103027 188.4097595214844 14.24638271331787 188.6331329345703 14.43903255462646 188.9927215576172 C 14.72480201721191 189.5300445556641 14.52122211456299 190.1986999511719 13.98592185974121 190.484619140625 L 7.553482055664062 193.9147796630859 C 7.3964524269104 193.9994049072266 7.216262340545654 194.0446929931641 7.03431224822998 194.0446929931641 Z" stroke="none"/>
        <path d="M 13.46624088287354 188.9097595214844 C 13.37054061889648 188.9097595214844 13.27344799041748 188.9326782226562 13.18298244476318 188.9810638427734 L 7.033992290496826 192.2601776123047 L 0.8860025405883789 188.9810638427734 C 0.5916824340820312 188.8238830566406 0.2272424697875977 188.9354400634766 0.07124233245849609 189.2288360595703 C -0.08584785461425781 189.5224609375 0.02557182312011719 189.8871765136719 0.3190822601318359 190.0435791015625 L 6.750912189483643 193.4735870361328 C 6.928759574890137 193.5689544677734 7.140976905822754 193.5691223144531 7.318212032318115 193.4735870361328 L 13.75036239624023 190.0435791015625 C 14.04318237304688 189.8871765136719 14.15447235107422 189.5224914550781 13.99829196929932 189.2288360595703 C 13.88949203491211 189.0257415771484 13.68145751953125 188.9097747802734 13.46624088287354 188.9097595214844 M 13.46624183654785 187.9097595214844 L 13.46629238128662 187.9097595214844 C 14.0583324432373 187.9097900390625 14.59994220733643 188.2342681884766 14.8797721862793 188.7566070556641 C 15.29548263549805 189.5382385253906 14.99954223632812 190.5100708007812 14.22149181365967 190.9256439208984 L 7.78875207901001 194.3559722900391 C 7.561022281646729 194.4787139892578 7.298792362213135 194.5446929931641 7.03431224822998 194.5446929931641 C 6.771352291107178 194.5446929931641 6.509942054748535 194.4790649414062 6.278362274169922 194.3548889160156 L -0.1514778137207031 190.9259490966797 C -0.5293474197387695 190.7245941162109 -0.8061981201171875 190.3878784179688 -0.9307479858398438 189.9779815673828 C -1.055227279663086 189.5682983398438 -1.012517929077148 189.1347198486328 -0.8104972839355469 188.7571105957031 C -0.5330877304077148 188.2353210449219 0.008802413940429688 187.9097747802734 0.6024618148803711 187.9097747802734 C 0.8643722534179688 187.9097747802734 1.125322341918945 187.9752044677734 1.357091903686523 188.0989685058594 L 7.034032821655273 191.1268463134766 L 12.71243190765381 188.0986938476562 C 12.94314193725586 187.9752960205078 13.20418262481689 187.9097595214844 13.46624183654785 187.9097595214844 Z" stroke="none" fill="#fafafa"/>
      </g>
    </g>
  </g>
</svg>
