<svg xmlns="http://www.w3.org/2000/svg" xmlns:xlink="http://www.w3.org/1999/xlink" width="71" height="42" viewBox="0 0 71 42">
  <defs>
    <clipPath id="clip-Custom_Size_1">
      <rect width="71" height="42"/>
    </clipPath>
  </defs>
  <g id="Custom_Size_1" data-name="Custom Size – 1" clip-path="url(#clip-Custom_Size_1)">
    <rect width="71" height="42" fill="#fff"/>
    <g id="Group_4305" data-name="Group 4305" transform="translate(-192.01 -516.564)">
      <g id="Group_3874" data-name="Group 3874" transform="translate(213.01 519.564)">
        <path id="Path_1553" data-name="Path 1553" d="M115.15,145.251h1.55V137.2a9.2,9.2,0,1,0-18.4,0v6.9h-1.15a1.15,1.15,0,1,0,0,2.3h3.45v8.051a1.15,1.15,0,0,0,2.3,0V146.4h9.2v8.051a1.15,1.15,0,0,0,2.3,0V146.4h1.7C116.739,146.4,115.786,145.251,115.15,145.251Z" transform="translate(-95.999 -122.167)" fill="#152a3f"/>
        <line id="Line_583" data-name="Line 583" y1="3" transform="translate(11.6)" fill="none" stroke="#152a3f" stroke-linecap="round" stroke-width="1"/>
        <g id="Group_3818" data-name="Group 3818" transform="translate(4.539 1.738) rotate(-45)">
          <line id="Line_584" data-name="Line 584" y1="3" fill="none" stroke="#152a3f" stroke-linecap="round" stroke-width="1"/>
        </g>
        <g id="Group_3819" data-name="Group 3819" transform="translate(16.539 3.86) rotate(-135)">
          <line id="Line_585" data-name="Line 585" y2="3" transform="translate(0)" fill="none" stroke="#152a3f" stroke-linecap="round" stroke-width="1"/>
        </g>
      </g>
      <g id="Path_1576" data-name="Path 1576" transform="translate(-224.961 270.318)" fill="#152a3f">
        <path d="M 454.1575317382812 284.1816101074219 C 454.1116027832031 284.1816101074219 454.0649108886719 284.1776733398438 454.0188293457031 284.169921875 C 453.9952392578125 284.1661376953125 453.9743041992188 284.1607971191406 453.9619140625 284.1574401855469 C 453.9423828125 284.1529541015625 453.915283203125 284.146240234375 453.8838806152344 284.1353454589844 C 453.86328125 284.1280517578125 453.8465881347656 284.1211853027344 453.8299560546875 284.1138000488281 L 453.8267211914062 284.1124572753906 L 453.8251953125 284.1117248535156 C 453.8027038574219 284.1020202636719 453.7805480957031 284.091796875 453.7586975097656 284.0800170898438 C 453.7383117675781 284.0688171386719 453.7221069335938 284.0587768554688 453.7062072753906 284.04833984375 C 453.6953735351562 284.0418090820312 453.6767883300781 284.0302734375 453.6555480957031 284.014404296875 L 453.6520690917969 284.0118103027344 L 453.648681640625 284.0091552734375 L 453.6217041015625 283.9882202148438 L 453.6187438964844 283.9852294921875 C 453.6174621582031 283.9841613769531 453.6161499023438 283.9830627441406 453.6148376464844 283.98193359375 L 452.5356750488281 283.0697021484375 C 452.3470764160156 282.9100952148438 452.239013671875 282.6770935058594 452.239013671875 282.4303283691406 L 452.239013671875 273.5438842773438 C 452.239013671875 273.0266723632812 452.5883483886719 272.573486328125 453.0885009765625 272.4418640136719 L 469.2578430175781 268.1519470214844 C 469.3446350097656 268.1290283203125 469.4334106445312 268.1175231933594 469.5223999023438 268.1175231933594 C 469.7291259765625 268.1175231933594 469.9289245605469 268.1786193847656 470.1002197265625 268.2942199707031 L 471.2180480957031 269.0487060546875 C 471.2249145507812 269.0533752441406 471.2315063476562 269.05810546875 471.2379150390625 269.0628662109375 C 471.2427673339844 269.0661926269531 471.2475280761719 269.069580078125 471.2522583007812 269.0730895996094 L 471.258056640625 269.0773315429688 L 471.263671875 269.081787109375 C 471.2893981933594 269.1018981933594 471.3090209960938 269.1208801269531 471.3240051269531 269.1363220214844 C 471.3374938964844 269.1487426757812 471.3587341308594 269.1687927246094 471.3814392089844 269.1949157714844 C 471.4105834960938 269.2285461425781 471.4308471679688 269.2589416503906 471.4417419433594 269.2752990722656 C 471.452880859375 269.2915344238281 471.4710998535156 269.318115234375 471.4893798828125 269.3526611328125 C 471.5086059570312 269.3893737792969 471.5201721191406 269.41943359375 471.5263671875 269.4356079101562 L 471.5274963378906 269.4384460449219 L 471.5300903320312 269.4451904296875 C 471.5375671386719 269.4643859863281 471.5489196777344 269.4935302734375 471.5587158203125 269.5306701660156 C 471.5685424804688 269.5682373046875 471.5731506347656 269.5996398925781 471.5757446289062 269.6194458007812 C 471.5799255371094 269.6411743164062 471.5841369628906 269.6680297851562 471.5858764648438 269.7002868652344 L 471.5862426757812 269.7077026367188 L 471.58642578125 269.7151489257812 L 471.5873413085938 269.7532653808594 L 471.5868530273438 269.7571411132812 L 471.5447998046875 278.5368347167969 C 471.5428161621094 278.9049682617188 471.2947387695312 279.2337341308594 470.9414978027344 279.3365783691406 L 454.3912353515625 284.1483154296875 C 454.370361328125 284.1542663574219 454.3513488769531 284.1586303710938 454.3324584960938 284.1622924804688 C 454.3161010742188 284.1660766601562 454.3003234863281 284.1692199707031 454.2841796875 284.171630859375 C 454.2423400878906 284.17822265625 454.1999816894531 284.1816101074219 454.1575317382812 284.1816101074219 Z M 456.0930480957031 275.5899963378906 L 456.0930480957031 280.9700012207031 L 468.7996826171875 277.2756652832031 L 468.8124694824219 272.1480407714844 L 456.0930480957031 275.5899963378906 Z" stroke="none"/>
        <path d="M 469.5223999023438 268.6175231933594 C 469.4768676757812 268.6175231933594 469.4310607910156 268.6233520507812 469.3860778808594 268.6352233886719 L 453.2157592773438 272.9253845214844 C 452.93505859375 272.999267578125 452.739013671875 273.2535400390625 452.739013671875 273.5438842773438 L 452.739013671875 282.4303283691406 C 452.739013671875 282.5295715332031 452.78271484375 282.6237487792969 452.8584594726562 282.6878662109375 L 453.9397583007812 283.6018981933594 C 453.9429931640625 283.6046752929688 453.9464416503906 283.6064453125 453.9496154785156 283.6089477539062 C 453.9515991210938 283.6105041503906 453.9530639648438 283.6124877929688 453.9551086425781 283.6140747070312 C 453.9611511230469 283.6185913085938 453.9677124023438 283.6218872070312 453.9739990234375 283.6260681152344 C 453.9812927246094 283.6307067871094 453.9883728027344 283.6357116699219 453.9959716796875 283.639892578125 C 454.0054321289062 283.6449890136719 454.0151672363281 283.6491394042969 454.02490234375 283.6533508300781 C 454.0325317382812 283.6565246582031 454.0398864746094 283.6601867675781 454.0475463867188 283.6629028320312 C 454.0587463378906 283.6667785644531 454.0704650878906 283.6693725585938 454.0820007324219 283.6719665527344 C 454.088623046875 283.6735534667969 454.0950927734375 283.67578125 454.1017150878906 283.6768493652344 C 454.1372985839844 283.6828308105469 454.1734313964844 283.6828918457031 454.2095947265625 283.67724609375 C 454.2158203125 283.6763000488281 454.2217712402344 283.6745910644531 454.2279357910156 283.6732788085938 C 454.2357482910156 283.671630859375 454.2437438964844 283.6704406738281 454.2516479492188 283.6681823730469 L 470.8016967773438 278.8565368652344 C 470.9451293945312 278.8147583007812 471.0440063476562 278.683837890625 471.0447998046875 278.534423828125 L 471.0869140625 269.7443237304688 C 471.0869140625 269.7413635253906 471.0859069824219 269.7386474609375 471.0859069824219 269.7356262207031 C 471.0858459472656 269.7326354980469 471.0866394042969 269.7299194335938 471.0865783691406 269.7269592285156 C 471.0860290527344 269.7168579101562 471.0830078125 269.7074584960938 471.0816650390625 269.6974792480469 C 471.0798950195312 269.6842346191406 471.07861328125 269.6710510253906 471.0752563476562 269.658203125 C 471.0719909667969 269.6458435058594 471.0670471191406 269.6343078613281 471.0625305175781 269.6224060058594 C 471.0577697753906 269.6102905273438 471.053466796875 269.5980224609375 471.04736328125 269.5863647460938 C 471.0414733886719 269.5752258300781 471.0340576171875 269.5649719238281 471.02685546875 269.5543518066406 C 471.0196228027344 269.5435180664062 471.0125427246094 269.53271484375 471.0039978027344 269.5228576660156 C 470.9955139160156 269.5130920410156 470.9857788085938 269.5046691894531 470.9762573242188 269.495849609375 C 470.9690246582031 269.4892272949219 470.963134765625 269.4814758300781 470.9553833007812 269.4754028320312 C 470.9524841308594 269.4732666015625 470.9491577148438 269.4720764160156 470.9462585449219 269.4700317382812 C 470.9434814453125 269.468017578125 470.9412841796875 269.4651489257812 470.9383239746094 269.463134765625 L 469.8205261230469 268.7086791992188 C 469.731689453125 268.6487426757812 469.6277465820312 268.6175231933594 469.5223999023438 268.6175231933594 M 455.5930480957031 281.6360778808594 L 455.5930480957031 275.2073059082031 L 469.3141174316406 271.4943237304688 L 469.2987365722656 277.6512756347656 L 455.5930480957031 281.6360778808594 M 469.5223999023438 267.6175231933594 C 469.8291320800781 267.6175231933594 470.1256408691406 267.7081909179688 470.3798828125 267.8797607421875 L 471.5020141601562 268.6371459960938 C 471.5118408203125 268.6438598632812 471.5215454101562 268.6507263183594 471.5310974121094 268.6577453613281 C 471.5371398925781 268.6619873046875 471.5431518554688 268.6663513183594 471.5491638183594 268.6707763671875 L 471.5719909667969 268.6881408691406 C 471.6146545410156 268.7215576171875 471.6480712890625 268.7529602050781 471.6729431152344 268.7780456542969 C 471.6940002441406 268.7977600097656 471.7252807617188 268.8283081054688 471.7588500976562 268.8669738769531 C 471.8018798828125 268.9165954589844 471.8319091796875 268.9592895507812 471.8556823730469 268.9948120117188 C 471.8702087402344 269.0160217285156 471.9004821777344 269.0604858398438 471.931396484375 269.1189575195312 C 471.9649658203125 269.1830749511719 471.9846496582031 269.2342834472656 471.9930419921875 269.2561340332031 L 471.9976196289062 269.2680053710938 C 472.005615234375 269.2884216308594 472.0251159667969 269.3384399414062 472.0421752929688 269.4031677246094 C 472.0570983886719 269.460205078125 472.0650939941406 269.508544921875 472.0695190429688 269.539794921875 C 472.0757751464844 269.5745849609375 472.0822143554688 269.6194152832031 472.0850830078125 269.6726379394531 L 472.0881042480469 269.779541015625 L 472.0867004394531 269.7906494140625 L 472.0447998046875 278.5392150878906 C 472.0416564941406 279.1272583007812 471.6454772949219 279.6523132324219 471.0813293457031 279.8166198730469 L 454.5308227539062 284.62841796875 C 454.491455078125 284.6397094726562 454.4606323242188 284.6465759277344 454.4366455078125 284.6513977050781 C 454.4176330566406 284.6556701660156 454.3931884765625 284.6606750488281 454.3643798828125 284.6651916503906 L 454.3643798828125 284.6651916503906 C 454.2198486328125 284.6878662109375 454.078125 284.6867370605469 453.9378356933594 284.663330078125 C 453.9371643066406 284.6632385253906 453.9363708496094 284.6630249023438 453.9358520507812 284.6629943847656 C 453.8977661132812 284.6566162109375 453.8659362792969 284.6491394042969 453.8417358398438 284.642822265625 C 453.8130798339844 284.6361083984375 453.7705078125 284.6251831054688 453.720947265625 284.6080627441406 L 453.7129211425781 284.6052551269531 C 453.6781921386719 284.5929260253906 453.650634765625 284.5812072753906 453.6300659179688 284.5721130371094 L 453.6281433105469 284.5712585449219 C 453.6079711914062 284.5625610351562 453.568603515625 284.5455627441406 453.5214233398438 284.5201110839844 L 453.5140686035156 284.51611328125 C 453.4832458496094 284.4991455078125 453.4583740234375 284.4835815429688 453.4392395019531 284.47119140625 C 453.4175109863281 284.4578552246094 453.3890075683594 284.4393920898438 453.3565979003906 284.4151916503906 L 453.2777099609375 284.3516540527344 L 452.212890625 283.4515686035156 C 451.9115600585938 283.196533203125 451.739013671875 282.824462890625 451.739013671875 282.4303283691406 L 451.739013671875 273.5438842773438 C 451.739013671875 272.7997131347656 452.2416076660156 272.147705078125 452.9612426757812 271.9583129882812 L 469.129638671875 267.6686706542969 C 469.2586669921875 267.6346130371094 469.390380859375 267.6175231933594 469.5223999023438 267.6175231933594 Z M 468.3005981445312 276.9000549316406 L 468.3108520507812 272.8017883300781 L 456.5930480957031 275.97265625 L 456.5930480957031 280.3039245605469 L 468.3005981445312 276.9000549316406 Z" stroke="none" fill="#fafafa"/>
      </g>
    </g>
  </g>
</svg>
