<svg xmlns="http://www.w3.org/2000/svg" xmlns:xlink="http://www.w3.org/1999/xlink" width="71" height="42" viewBox="0 0 71 42">
  <defs>
    <clipPath id="clip-Custom_Size_1">
      <rect width="71" height="42"/>
    </clipPath>
  </defs>
  <g id="Custom_Size_1" data-name="Custom Size – 1" clip-path="url(#clip-Custom_Size_1)">
    <rect width="71" height="42" fill="#fff"/>
    <g id="Group_4304" data-name="Group 4304" transform="translate(-5 -515.564)">
      <g id="Group_3820" data-name="Group 3820" transform="translate(26 518.564)">
        <path id="Path_1553" data-name="Path 1553" d="M115.15,145.251l1.55-3.235V137.2a9.2,9.2,0,1,0-18.4,0v6.9h-1.15a1.15,1.15,0,1,0,0,2.3h3.45v8.051a1.15,1.15,0,0,0,2.3,0V146.4h9.2v8.051a1.15,1.15,0,0,0,2.3,0V146.4h1.7C116.739,146.4,115.786,145.251,115.15,145.251Z" transform="translate(-95.999 -122.167)" fill="#152a3f"/>
        <line id="Line_583" data-name="Line 583" y1="3" transform="translate(11.6)" fill="none" stroke="#152a3f" stroke-linecap="round" stroke-width="1"/>
        <g id="Group_3818" data-name="Group 3818" transform="translate(4.539 1.738) rotate(-45)">
          <line id="Line_584" data-name="Line 584" y1="3" fill="none" stroke="#152a3f" stroke-linecap="round" stroke-width="1"/>
        </g>
        <g id="Group_3819" data-name="Group 3819" transform="translate(16.539 3.86) rotate(-135)">
          <line id="Line_585" data-name="Line 585" y2="3" transform="translate(0)" fill="none" stroke="#152a3f" stroke-linecap="round" stroke-width="1"/>
        </g>
      </g>
      <g id="Group_3873" data-name="Group 3873" transform="translate(19052.539 6988.847)">
        <g id="Group_3814" data-name="Group 3814" transform="translate(-19008 -6453)">
          <g id="Path_1550" data-name="Path 1550" transform="translate(-122.435)" fill="#152a3f">
            <path d="M 130.5544281005859 19.65349578857422 L 124.308708190918 19.65349578857422 C 122.9998397827148 19.65349578857422 121.9350051879883 18.58864593505859 121.9350051879883 17.27977561950684 L 121.9350051879883 9.797985076904297 C 121.9350051879883 7.78755521774292 122.3679046630859 6.786115169525146 122.8262252807617 5.725884914398193 C 123.1579284667969 4.958546161651611 123.4998092651367 4.167689323425293 123.6901779174805 2.881108522415161 C 123.0265579223633 2.631205081939697 122.5595550537109 1.992544412612915 122.5595550537109 1.249125003814697 C 122.5595550537109 0.2846550345420837 123.3442230224609 -0.4999949634075165 124.308708190918 -0.4999949634075165 L 130.5544128417969 -0.4999949634075165 C 131.5188903808594 -0.4999949634075165 132.3035583496094 0.2846550345420837 132.3035583496094 1.249125003814697 C 132.3035583496094 1.992520451545715 131.8365020751953 2.631214141845703 131.1728973388672 2.881147146224976 C 131.3636016845703 4.17144775390625 131.7056884765625 4.961584568023682 132.0375823974609 5.728095054626465 C 132.4955444335938 6.78578519821167 132.9281158447266 7.784824848175049 132.9281463623047 9.797974586486816 L 132.9281463623047 17.27977561950684 C 132.9281463623047 18.58864593505859 131.8632965087891 19.65349578857422 130.5544281005859 19.65349578857422 Z M 124.9114379882812 6.521048069000244 C 125.7679824829102 6.562145709991455 126.589729309082 6.831237316131592 127.3010787963867 7.305495262145996 C 127.7437896728516 7.600645065307617 128.1802062988281 7.744124889373779 128.6352691650391 7.744124889373779 C 129.2953643798828 7.744124889373779 129.8606567382812 7.429183959960938 130.2305755615234 7.203195095062256 C 130.1245727539062 6.903855800628662 130.0007629394531 6.612142562866211 129.8608093261719 6.332294940948486 C 129.4226531982422 5.455470561981201 129.0861206054688 4.259901523590088 128.9177093505859 2.998255014419556 L 125.9454116821289 2.998255014419556 C 125.776985168457 4.259898662567139 125.4404754638672 5.45545482635498 125.0024032592773 6.332145214080811 C 124.9714202880859 6.394115924835205 124.9410858154297 6.4571213722229 124.9114379882812 6.521048069000244 Z" stroke="none"/>
            <path d="M 124.3087158203125 -5.7220458984375e-06 C 123.6188201904297 -5.7220458984375e-06 123.0595550537109 0.5592250823974609 123.0595550537109 1.249124526977539 C 123.0595550537109 1.916955947875977 123.5850067138672 2.457595825195312 124.2443695068359 2.491785049438477 C 123.8544158935547 6.01838493347168 122.4349975585938 6.25069522857666 122.4349975585938 9.797985076904297 L 122.4349975585938 17.27977561950684 C 122.4349975585938 18.31298446655273 123.2754974365234 19.15348434448242 124.3087158203125 19.15348434448242 L 130.554443359375 19.15348434448242 C 131.587646484375 19.15348434448242 132.4281311035156 18.31298446655273 132.4281311035156 17.27977561950684 L 132.4281311035156 9.797985076904297 C 132.4281005859375 6.244745254516602 131.0096282958984 6.027174949645996 130.6187438964844 2.491825103759766 C 131.2781066894531 2.457595825195312 131.8035583496094 1.916955947875977 131.8035583496094 1.249124526977539 C 131.8035583496094 0.5592250823974609 131.2442932128906 -5.7220458984375e-06 130.5544128417969 -5.7220458984375e-06 L 124.3087158203125 -5.7220458984375e-06 M 128.6352691650391 8.244121551513672 C 128.1459655761719 8.244121551513672 127.6016006469727 8.106775283813477 127.0237197875977 7.721514701843262 C 126.1585693359375 7.144708633422852 125.1325225830078 6.927116394042969 124.1585845947266 7.047585487365723 C 124.2717132568359 6.726844787597656 124.4031372070312 6.412674903869629 124.5551300048828 6.108654975891113 C 125.0632171630859 5.091835021972656 125.3792114257812 3.707924842834473 125.5005340576172 2.498254776000977 L 129.3626098632812 2.498254776000977 C 129.4839019775391 3.707924842834473 129.7998962402344 5.091835021972656 130.3080139160156 6.108654975891113 C 130.5197296142578 6.532014846801758 130.6939697265625 6.974265098571777 130.829833984375 7.428074836730957 C 130.5154418945312 7.584088325500488 129.707763671875 8.244121551513672 128.6352691650391 8.244121551513672 M 124.3087158203125 -1.000005722045898 L 130.5544128417969 -1.000005722045898 C 131.7946014404297 -1.000005722045898 132.8035583496094 0.008955001831054688 132.8035583496094 1.249124526977539 C 132.8035583496094 2.057746887207031 132.3743896484375 2.770065307617188 131.7261505126953 3.165281295776367 C 131.9114379882812 4.178447723388672 132.1972045898438 4.838401794433594 132.4964141845703 5.529424667358398 C 132.9544677734375 6.587314605712891 133.4281311035156 7.681215286254883 133.4281311035156 9.797974586486816 L 133.4281311035156 17.27977561950684 C 133.4281311035156 18.86434555053711 132.1390075683594 20.15348434448242 130.554443359375 20.15348434448242 L 124.3087158203125 20.15348434448242 C 122.7241363525391 20.15348434448242 121.4349975585938 18.86434555053711 121.4349975585938 17.27977561950684 L 121.4349975585938 9.797985076904297 C 121.4349975585938 7.684104919433594 121.908935546875 6.58775520324707 122.3672790527344 5.527495384216309 C 122.6662292480469 4.835906982421875 122.9518127441406 4.175239562988281 123.1368408203125 3.165203094482422 C 122.4886779785156 2.769990921020508 122.0595550537109 2.057708740234375 122.0595550537109 1.249124526977539 C 122.0595550537109 0.008955001831054688 123.0685272216797 -1.000005722045898 124.3087158203125 -1.000005722045898 Z M 128.4869537353516 3.498254776000977 L 126.3761749267578 3.498254776000977 C 126.2185668945312 4.452597618103027 125.9689788818359 5.356884002685547 125.6552276611328 6.10593318939209 C 126.3407135009766 6.234686851501465 126.9932403564453 6.499320983886719 127.5784454345703 6.889474868774414 C 127.936393737793 7.128114700317383 128.2820892333984 7.244125366210938 128.6352691650391 7.244125366210938 C 128.993896484375 7.244125366210938 129.3267059326172 7.12276554107666 129.6086273193359 6.980535507202148 C 129.5480041503906 6.836255073547363 129.4829254150391 6.694521903991699 129.4136199951172 6.555934906005859 C 129.0028686523438 5.733969688415527 128.6775817871094 4.65272331237793 128.4869537353516 3.498254776000977 Z" stroke="none" fill="#fafafa"/>
          </g>
        </g>
      </g>
    </g>
  </g>
</svg>
