<svg xmlns="http://www.w3.org/2000/svg" xmlns:xlink="http://www.w3.org/1999/xlink" width="71" height="42" viewBox="0 0 71 42">
  <defs>
    <clipPath id="clip-Custom_Size_1">
      <rect width="71" height="42"/>
    </clipPath>
  </defs>
  <g id="Custom_Size_1" data-name="Custom Size – 1" clip-path="url(#clip-Custom_Size_1)">
    <rect width="71" height="42" fill="#fff"/>
    <g id="Menu_Icon_Blinking_ny_Product" data-name="Menu Icon_Blinking ny Product" transform="translate(-6725.135 -2266.937)">
      <rect id="Rectangle_4985" data-name="Rectangle 4985" width="16.931" height="16.931" transform="translate(6756.509 2281.221)" fill="#152a3f"/>
      <rect id="Rectangle_4986" data-name="Rectangle 4986" width="11.915" height="11.915" transform="translate(6756.509 2283.729)" fill="#fff"/>
      <rect id="Rectangle_4987" data-name="Rectangle 4987" width="1.254" height="3.135" rx="0.627" transform="translate(6770.305 2288.119)" fill="#fff"/>
      <line id="Line_849" data-name="Line 849" y1="1.254" x2="1.254" transform="matrix(0.951, 0.309, -0.309, 0.951, 6775.859, 2285.627)" fill="none" stroke="#152a3f" stroke-linecap="round" stroke-width="1"/>
      <line id="Line_852" data-name="Line 852" x2="1.254" y2="1.254" transform="matrix(0.951, -0.309, 0.309, 0.951, 6775.472, 2292.254)" fill="none" stroke="#152a3f" stroke-linecap="round" stroke-width="1"/>
      <path id="Path_1784" data-name="Path 1784" d="M0,0H1.612" transform="translate(6776.246 2289.734)" fill="none" stroke="#152a3f" stroke-linecap="round" stroke-width="1"/>
      <g id="Path_1550" data-name="Path 1550" transform="translate(6620.7 2273.937)" fill="#152a3f">
        <path d="M 134.5261535644531 29.02265930175781 L 125.2252807617188 29.02265930175781 C 123.411018371582 29.02265930175781 121.9350051879883 27.54665946960449 121.9350051879883 25.73239898681641 L 121.9350051879883 14.59078979492188 C 121.9350051879883 11.64754009246826 122.5699157714844 10.17881011962891 123.2420959472656 8.623839378356934 C 123.7598876953125 7.426056385040283 124.294075012207 6.190366744995117 124.575065612793 4.122461318969727 C 123.5829696655273 3.839860439300537 122.8650588989258 2.930479526519775 122.8650588989258 1.860159635543823 C 122.8650588989258 0.5587596297264099 123.9238433837891 -0.5000003576278687 125.2252807617188 -0.5000003576278687 L 134.5261383056641 -0.5000003576278687 C 135.8275451660156 -0.5000003576278687 136.8863220214844 0.5587596297264099 136.8863220214844 1.860159635543823 C 136.8863220214844 2.930445194244385 136.1683654785156 3.839859247207642 135.1762847900391 4.122503280639648 C 135.4578399658203 6.196453094482422 135.9923248291016 7.430836200714111 136.5103607177734 8.627279281616211 C 137.1819915771484 10.17844009399414 137.8163757324219 11.64356994628906 137.8164215087891 14.59077930450439 L 137.8164215087891 25.73239898681641 C 137.8164215087891 27.54665946960449 136.3404235839844 29.02265930175781 134.5261535644531 29.02265930175781 Z M 125.7782287597656 9.947239875793457 C 127.1288833618164 9.947239875793457 128.4316711425781 10.33982944488525 129.5457153320312 11.08257007598877 C 130.2367248535156 11.54325008392334 130.9508361816406 11.77683925628662 131.668212890625 11.77683925628662 C 132.8128356933594 11.77683925628662 133.7560424804688 11.19297981262207 134.319580078125 10.84414005279541 C 134.3260955810547 10.84010887145996 134.3325500488281 10.83611392974854 134.3389587402344 10.8321533203125 C 134.1641998291016 10.31131935119629 133.9539947509766 9.804333686828613 133.7119903564453 9.320419311523438 C 133.0466461181641 7.988966464996338 132.5410308837891 6.15074634552002 132.3040161132812 4.220309734344482 L 127.4473876953125 4.220309734344482 C 127.2103500366211 6.150752544403076 126.7047348022461 7.98896598815918 126.0394897460938 9.320280075073242 C 125.9383316040039 9.522623062133789 125.8417358398438 9.732084274291992 125.7502822875977 9.947298049926758 C 125.7595977783203 9.947259902954102 125.768913269043 9.947239875793457 125.7782287597656 9.947239875793457 Z" stroke="none"/>
        <path d="M 125.2252807617188 0 C 124.1978759765625 0 123.3650512695312 0.8327789306640625 123.3650512695312 1.860158920288086 C 123.3650512695312 2.854660034179688 124.1475524902344 3.659759521484375 125.1294555664062 3.71068000793457 C 124.5487365722656 8.962348937988281 122.4349975585938 9.308300018310547 122.4349975585938 14.59078979492188 L 122.4349975585938 25.73239898681641 C 122.4349975585938 27.27100944519043 123.6866760253906 28.52265930175781 125.2252807617188 28.52265930175781 L 134.5261535644531 28.52265930175781 C 136.0647888183594 28.52265930175781 137.3164215087891 27.27100944519043 137.3164215087891 25.73239898681641 L 137.3164215087891 14.59078979492188 C 137.3163452148438 9.299449920654297 135.2040100097656 8.975439071655273 134.6219329833984 3.710729598999023 C 135.6038208007812 3.659759521484375 136.3863220214844 2.854660034179688 136.3863220214844 1.860158920288086 C 136.3863220214844 0.8327789306640625 135.553466796875 0 134.5261383056641 0 L 125.2252807617188 0 M 131.6682281494141 12.27683639526367 C 130.9395751953125 12.27683639526367 130.12890625 12.07230567932129 129.2683563232422 11.49859046936035 C 127.97998046875 10.63961791992188 126.4519805908203 10.31562232971191 125.001708984375 10.49499893188477 C 125.170166015625 10.01735877990723 125.3658752441406 9.549520492553711 125.5922241210938 9.096778869628906 C 126.3488464355469 7.582569122314453 126.8194274902344 5.521699905395508 127.0000915527344 3.720310211181641 L 132.7513427734375 3.720310211181641 C 132.9319458007812 5.521699905395508 133.4025268554688 7.582569122314453 134.1591949462891 9.096778869628906 C 134.4744720458984 9.727230072021484 134.7339630126953 10.38580894470215 134.936279296875 11.06160926818848 C 134.4681091308594 11.29393577575684 133.2653503417969 12.27683639526367 131.6682281494141 12.27683639526367 M 125.2252807617188 -1 L 134.5261383056641 -1 C 136.1032409667969 -1 137.3863220214844 0.2830600738525391 137.3863220214844 1.860158920288086 C 137.3863220214844 3.002830505371094 136.7118835449219 3.994220733642578 135.7300415039062 4.448770523071289 C 136.0146331787109 6.223897933959961 136.4988861083984 7.342411041259766 136.9691925048828 8.428600311279297 C 137.6315155029297 9.958240509033203 138.3163757324219 11.53995895385742 138.3164215087891 14.59076976776123 L 138.3164215087891 25.73239898681641 C 138.3164215087891 27.82235908508301 136.6161193847656 29.52265930175781 134.5261535644531 29.52265930175781 L 125.2252807617188 29.52265930175781 C 123.1353149414062 29.52265930175781 121.4349975585938 27.82235908508301 121.4349975585938 25.73239898681641 L 121.4349975585938 14.59078979492188 C 121.4349975585938 11.5440788269043 122.1203460693359 9.958650588989258 122.7831420898438 8.425418853759766 C 123.253173828125 7.338100433349609 123.7370910644531 6.218759536743164 124.021240234375 4.448705673217773 C 123.0395050048828 3.994142532348633 122.3650512695312 3.002775192260742 122.3650512695312 1.860158920288086 C 122.3650512695312 0.2830600738525391 123.6481475830078 -1 125.2252807617188 -1 Z M 131.866455078125 4.720310211181641 L 127.8849334716797 4.720310211181641 C 127.6253814697266 6.51641845703125 127.1407470703125 8.212249755859375 126.5163726806641 9.483968734741211 C 127.7002258300781 9.602348327636719 128.8311004638672 10.00519371032715 129.8230743408203 10.66655921936035 C 130.4390411376953 11.07720947265625 131.0426025390625 11.27684020996094 131.6682281494141 11.27684020996094 C 132.4902648925781 11.27684020996094 133.1990356445312 10.92965507507324 133.7318115234375 10.61632347106934 C 133.5940856933594 10.24892616271973 133.4379272460938 9.890275955200195 133.2648010253906 9.544059753417969 C 132.6260070800781 8.265724182128906 132.1300659179688 6.544670104980469 131.866455078125 4.720310211181641 Z" stroke="none" fill="#fafafa"/>
      </g>
    </g>
  </g>
</svg>
