<svg xmlns="http://www.w3.org/2000/svg" xmlns:xlink="http://www.w3.org/1999/xlink" width="71" height="42" viewBox="0 0 71 42">
  <defs>
    <clipPath id="clip-Custom_Size_1">
      <rect width="71" height="42"/>
    </clipPath>
  </defs>
  <g id="Custom_Size_1" data-name="Custom Size – 1" clip-path="url(#clip-Custom_Size_1)">
    <rect width="71" height="42" fill="#fff"/>
    <g id="Menu_Icon_Enter_Check_Expiry" data-name="Menu Icon_Enter&amp;Check Expiry" transform="translate(-7672 -1961.652)">
      <path id="Path_917" data-name="Path 917" d="M13.5,0a13.5,13.5,0,1,0,13.5,13.5A13.518,13.518,0,0,0,13.5,0Z" transform="matrix(0.891, -0.454, 0.454, 0.891, 7687, 1975.912)" fill="#152a3f"/>
      <ellipse id="Ellipse_63" data-name="Ellipse 63" cx="11.248" cy="11.248" rx="11.248" ry="11.248" transform="matrix(0.891, -0.454, 0.454, 0.891, 7690.025, 1976.895)" fill="#fff"/>
      <path id="Path_1716" data-name="Path 1716" d="M0,12.375V0L4.92.895l5.727,5.191,1.79,6.289-1.79,6.463-1.7,2.148Z" transform="translate(7705.16 1969.438)" fill="#152a3f"/>
      <g id="Path_916" data-name="Path 916" transform="translate(7590.012 1981.087)" fill="#152a3f">
        <path d="M 130.4416351318359 19.38699531555176 L 124.2826690673828 19.38699531555176 C 122.9881591796875 19.38699531555176 121.9350051879883 18.3338451385498 121.9350051879883 17.03934669494629 L 121.9350051879883 9.661655426025391 C 121.9350051879883 7.677755832672119 122.362174987793 6.689615726470947 122.8144149780273 5.643455982208252 C 123.1408538818359 4.888340950012207 123.4772872924805 4.110049247741699 123.6650466918945 2.845553159713745 C 123.0108108520508 2.596748113632202 122.5508804321289 1.965827703475952 122.5508804321289 1.231745719909668 C 122.5508804321289 0.2768557369709015 123.327766418457 -0.5000042319297791 124.2826690673828 -0.5000042319297791 L 130.4416046142578 -0.5000042319297791 C 131.3965301513672 -0.5000042319297791 132.1734313964844 0.2768557369709015 132.1734313964844 1.231745719909668 C 132.1734313964844 1.965803742408752 131.7134399414062 2.596752643585205 131.0592041015625 2.845589876174927 C 131.2472839355469 4.113898277282715 131.5839385986328 4.891311168670654 131.9105682373047 5.645665645599365 C 132.3624877929688 6.689315795898438 132.7893218994141 7.675085544586182 132.7893676757812 9.661645889282227 L 132.7893676757812 17.03934669494629 C 132.7893676757812 18.3338451385498 131.7361755371094 19.38699531555176 130.4416351318359 19.38699531555176 Z M 124.8876724243164 6.423876285552979 C 125.7298049926758 6.466143608093262 126.5376815795898 6.731629848480225 127.2373046875 7.198055744171143 C 127.6726989746094 7.488315582275391 128.101806640625 7.629415512084961 128.5491333007812 7.629415512084961 C 129.1953582763672 7.629415512084961 129.7496490478516 7.322198390960693 130.1138610839844 7.099968433380127 C 130.0098876953125 6.807031154632568 129.8885650634766 6.521472454071045 129.7514495849609 6.24729585647583 C 129.3197326660156 5.383370876312256 128.9880218505859 4.206019401550293 128.8215789794922 2.96349573135376 L 125.9027328491211 2.96349573135376 C 125.7362594604492 4.206052780151367 125.404541015625 5.383418083190918 124.9729309082031 6.247155666351318 C 124.9439315795898 6.305168628692627 124.9154968261719 6.364111423492432 124.8876724243164 6.423876285552979 Z" stroke="none"/>
        <path d="M 124.2826843261719 -3.814697265625e-06 C 123.6023559570312 -3.814697265625e-06 123.0508728027344 0.5514450073242188 123.0508728027344 1.231746673583984 C 123.0508728027344 1.890285491943359 123.5690307617188 2.423395156860352 124.21923828125 2.457115173339844 C 123.8346862792969 5.934645652770996 122.4349975585938 6.163725852966309 122.4349975585938 9.661655426025391 L 122.4349975585938 17.03934478759766 C 122.4349975585938 18.05817604064941 123.2638244628906 18.88699531555176 124.2826843261719 18.88699531555176 L 130.4416351318359 18.88699531555176 C 131.4604949951172 18.88699531555176 132.2893676757812 18.05817604064941 132.2893676757812 17.03934478759766 L 132.2893676757812 9.661655426025391 C 132.2892913818359 6.157865524291992 130.8905029296875 5.943315505981445 130.5050506591797 2.457155227661133 C 131.1552734375 2.423395156860352 131.6734313964844 1.890285491943359 131.6734313964844 1.231746673583984 C 131.6734313964844 0.5514450073242188 131.1219482421875 -3.814697265625e-06 130.4416046142578 -3.814697265625e-06 L 124.2826843261719 -3.814697265625e-06 M 128.5491333007812 8.129415512084961 C 128.0666198730469 8.129415512084961 127.5298080444336 7.993978500366211 126.9599533081055 7.614075660705566 C 126.1068115234375 7.045294761657715 125.0950317382812 6.830747604370117 124.1346435546875 6.949525833129883 C 124.2461853027344 6.633245468139648 124.3757934570312 6.323455810546875 124.5256652832031 6.023655891418457 C 125.0267028808594 5.02098560333252 125.3383178710938 3.656325340270996 125.4579467773438 2.463495254516602 L 129.2663726806641 2.463495254516602 C 129.3859710693359 3.656325340270996 129.6976013183594 5.02098560333252 130.1986389160156 6.023655891418457 C 130.4074096679688 6.441125869750977 130.5792694091797 6.877225875854492 130.7131958007812 7.324726104736328 C 130.4031982421875 7.478561401367188 129.6067352294922 8.129415512084961 128.5491333007812 8.129415512084961 M 124.2826843261719 -1.000003814697266 L 130.4416046142578 -1.000003814697266 C 131.6722412109375 -1.000003814697266 132.6734313964844 0.001155853271484375 132.6734313964844 1.231746673583984 C 132.6734313964844 2.030727386474609 132.2511444091797 2.734968185424805 131.6124725341797 3.12812328338623 C 131.7949981689453 4.1204833984375 132.0756225585938 4.768526077270508 132.3694000244141 5.446975708007812 C 132.8216552734375 6.491445541381836 133.2893218994141 7.571465492248535 133.2893676757812 9.661635398864746 L 133.2893676757812 17.03934478759766 C 133.2893676757812 18.60954666137695 132.0118713378906 19.88699531555176 130.4416351318359 19.88699531555176 L 124.2826843261719 19.88699531555176 C 122.7124633789062 19.88699531555176 121.4349975585938 18.60954666137695 121.4349975585938 17.03934478759766 L 121.4349975585938 9.661655426025391 C 121.4349975585938 7.574305534362793 121.9029388427734 6.491855621337891 122.35546875 5.445045471191406 C 122.6489868164062 4.766043663024902 122.9294128417969 4.117331504821777 123.1116943359375 3.128042221069336 C 122.4730987548828 2.734888076782227 122.0508728027344 2.030689239501953 122.0508728027344 1.231746673583984 C 122.0508728027344 0.001155853271484375 123.0520629882812 -1.000003814697266 124.2826843261719 -1.000003814697266 Z M 128.39111328125 3.463496208190918 L 126.3331909179688 3.463496208190918 C 126.1786193847656 4.394575119018555 125.9353485107422 5.277031898498535 125.6299133300781 6.010499000549316 C 126.3015289306641 6.13896369934082 126.9408645629883 6.39948558807373 127.5146713256836 6.782035827636719 C 127.8652954101562 7.015786170959473 128.2036743164062 7.129415512084961 128.5491333007812 7.129415512084961 C 128.8951110839844 7.129415512084961 129.217041015625 7.013775825500488 129.4911193847656 6.876790046691895 C 129.4328918457031 6.738971710205078 129.3705444335938 6.60350513458252 129.3042449951172 6.470925331115723 C 128.8999786376953 5.661925315856934 128.57958984375 4.598851203918457 128.39111328125 3.463496208190918 Z" stroke="none" fill="#fafafa"/>
      </g>
      <path id="Path_916-2" data-name="Path 916" d="M127.032,7.718a4.176,4.176,0,0,0-2.825-.665,8.077,8.077,0,0,1,.391-.926,10.9,10.9,0,0,0,.932-3.56h3.808a10.9,10.9,0,0,0,.932,3.56,8.11,8.11,0,0,1,.515,1.3A3.2,3.2,0,0,1,127.032,7.718Z" transform="translate(7589.939 1980.983)" fill="#fafafa"/>
    </g>
  </g>
</svg>
