<svg xmlns="http://www.w3.org/2000/svg" xmlns:xlink="http://www.w3.org/1999/xlink" width="71" height="42" viewBox="0 0 71 42">
  <defs>
    <clipPath id="clip-ic_plu_assign">
      <rect width="71" height="42"/>
    </clipPath>
  </defs>
  <g id="ic_plu_assign" clip-path="url(#clip-ic_plu_assign)">
    <rect width="71" height="42" fill="#f2f2f2"/>
    <path id="Path_1741" data-name="Path 1741" d="M0,0H71V42H0Z" fill="#fafafa"/>
    <g id="extra_assign" transform="translate(7 6.308)">
      <g id="Group_5729" data-name="Group 5729" transform="translate(0 0)">
        <g id="_623074_column_layout_responsive_fluid_grid_icon" data-name="623074_column_layout_responsive_fluid_grid_icon" transform="translate(0 0)">
          <path id="Path_1639" data-name="Path 1639" d="M-235.788,409.479H-240.2a.721.721,0,0,1-.525-.211.721.721,0,0,1-.211-.525v-4.418a.721.721,0,0,1,.211-.525.721.721,0,0,1,.525-.211h4.414a.721.721,0,0,1,.525.211.721.721,0,0,1,.211.525v4.414a.721.721,0,0,1-.209.527A.721.721,0,0,1-235.788,409.479Z" transform="translate(240.938 -403.59)" fill="#152a3f"/>
          <path id="Path_1641" data-name="Path 1641" d="M-202.788,409.479H-207.2a.721.721,0,0,1-.525-.211.721.721,0,0,1-.211-.525v-4.418a.721.721,0,0,1,.211-.525.721.721,0,0,1,.525-.211h4.414a.721.721,0,0,1,.525.211.721.721,0,0,1,.211.525v4.414a.721.721,0,0,1-.209.527A.721.721,0,0,1-202.788,409.479Z" transform="translate(225.247 -403.59)" fill="#152a3f"/>
          <path id="Path_1639-2" data-name="Path 1639" d="M-235.788,409.479H-240.2a.721.721,0,0,1-.525-.211.721.721,0,0,1-.211-.525v-4.418a.721.721,0,0,1,.211-.525.721.721,0,0,1,.525-.211h4.414a.721.721,0,0,1,.525.211.721.721,0,0,1,.211.525v4.414a.721.721,0,0,1-.209.527A.721.721,0,0,1-235.788,409.479Z" transform="translate(249.592 -403.59)" fill="#152a3f"/>
        </g>
      </g>
    </g>
    <g id="extra_assign-2" data-name="extra_assign" transform="translate(7 13.52)">
      <g id="Group_5729-2" data-name="Group 5729" transform="translate(0 0)">
        <g id="_623074_column_layout_responsive_fluid_grid_icon-2" data-name="623074_column_layout_responsive_fluid_grid_icon" transform="translate(0 0)">
          <path id="Path_1639-3" data-name="Path 1639" d="M-235.788,409.479H-240.2a.721.721,0,0,1-.525-.211.721.721,0,0,1-.211-.525v-4.418a.721.721,0,0,1,.211-.525.721.721,0,0,1,.525-.211h4.414a.721.721,0,0,1,.525.211.721.721,0,0,1,.211.525v4.414a.721.721,0,0,1-.209.527A.721.721,0,0,1-235.788,409.479Z" transform="translate(240.938 -403.59)" fill="#152a3f"/>
          <path id="Path_1641-2" data-name="Path 1641" d="M-202.788,409.479H-207.2a.721.721,0,0,1-.525-.211.721.721,0,0,1-.211-.525v-4.418a.721.721,0,0,1,.211-.525.721.721,0,0,1,.525-.211h4.414a.721.721,0,0,1,.525.211.721.721,0,0,1,.211.525v4.414a.721.721,0,0,1-.209.527A.721.721,0,0,1-202.788,409.479Z" transform="translate(225.247 -403.59)" fill="#152a3f"/>
          <path id="Path_1639-4" data-name="Path 1639" d="M-235.788,409.479H-240.2a.721.721,0,0,1-.525-.211.721.721,0,0,1-.211-.525v-4.418a.721.721,0,0,1,.211-.525.721.721,0,0,1,.525-.211h4.414a.721.721,0,0,1,.525.211.721.721,0,0,1,.211.525v4.414a.721.721,0,0,1-.209.527A.721.721,0,0,1-235.788,409.479Z" transform="translate(249.592 -403.59)" fill="#152a3f"/>
        </g>
      </g>
    </g>
    <g id="extra_assign-3" data-name="extra_assign" transform="translate(7 20.732)">
      <g id="Group_5729-3" data-name="Group 5729" transform="translate(0 0)">
        <g id="_623074_column_layout_responsive_fluid_grid_icon-3" data-name="623074_column_layout_responsive_fluid_grid_icon" transform="translate(0 0)">
          <path id="Path_1639-5" data-name="Path 1639" d="M-235.788,409.479H-240.2a.721.721,0,0,1-.525-.211.721.721,0,0,1-.211-.525v-4.418a.721.721,0,0,1,.211-.525.721.721,0,0,1,.525-.211h4.414a.721.721,0,0,1,.525.211.721.721,0,0,1,.211.525v4.414a.721.721,0,0,1-.209.527A.721.721,0,0,1-235.788,409.479Z" transform="translate(240.938 -403.59)" fill="#152a3f"/>
          <path id="Path_1641-3" data-name="Path 1641" d="M-202.788,409.479H-207.2a.721.721,0,0,1-.525-.211.721.721,0,0,1-.211-.525v-4.418a.721.721,0,0,1,.211-.525.721.721,0,0,1,.525-.211h4.414a.721.721,0,0,1,.525.211.721.721,0,0,1,.211.525v4.414a.721.721,0,0,1-.209.527A.721.721,0,0,1-202.788,409.479Z" transform="translate(225.247 -403.59)" fill="#152a3f"/>
          <path id="Path_1639-6" data-name="Path 1639" d="M-235.788,409.479H-240.2a.721.721,0,0,1-.525-.211.721.721,0,0,1-.211-.525v-4.418a.721.721,0,0,1,.211-.525.721.721,0,0,1,.525-.211h4.414a.721.721,0,0,1,.525.211.721.721,0,0,1,.211.525v4.414a.721.721,0,0,1-.209.527A.721.721,0,0,1-235.788,409.479Z" transform="translate(249.592 -403.59)" fill="#152a3f"/>
        </g>
      </g>
    </g>
    <g id="extra_assign-4" data-name="extra_assign" transform="translate(7 27.945)">
      <g id="Group_5729-4" data-name="Group 5729" transform="translate(0 0)">
        <g id="_623074_column_layout_responsive_fluid_grid_icon-4" data-name="623074_column_layout_responsive_fluid_grid_icon" transform="translate(0 0)">
          <path id="Path_1639-7" data-name="Path 1639" d="M-235.788,409.479H-240.2a.721.721,0,0,1-.525-.211.721.721,0,0,1-.211-.525v-4.418a.721.721,0,0,1,.211-.525.721.721,0,0,1,.525-.211h4.414a.721.721,0,0,1,.525.211.721.721,0,0,1,.211.525v4.414a.721.721,0,0,1-.209.527A.721.721,0,0,1-235.788,409.479Z" transform="translate(240.938 -403.59)" fill="#152a3f"/>
          <path id="Path_1641-4" data-name="Path 1641" d="M-202.788,409.479H-207.2a.721.721,0,0,1-.525-.211.721.721,0,0,1-.211-.525v-4.418a.721.721,0,0,1,.211-.525.721.721,0,0,1,.525-.211h4.414a.721.721,0,0,1,.525.211.721.721,0,0,1,.211.525v4.414a.721.721,0,0,1-.209.527A.721.721,0,0,1-202.788,409.479Z" transform="translate(225.247 -403.59)" fill="#152a3f"/>
          <path id="Path_1639-8" data-name="Path 1639" d="M-235.788,409.479H-240.2a.721.721,0,0,1-.525-.211.721.721,0,0,1-.211-.525v-4.418a.721.721,0,0,1,.211-.525.721.721,0,0,1,.525-.211h4.414a.721.721,0,0,1,.525.211.721.721,0,0,1,.211.525v4.414a.721.721,0,0,1-.209.527A.721.721,0,0,1-235.788,409.479Z" transform="translate(249.592 -403.59)" fill="#152a3f"/>
        </g>
      </g>
    </g>
  </g>
</svg>
