<svg xmlns="http://www.w3.org/2000/svg" xmlns:xlink="http://www.w3.org/1999/xlink" width="71" height="42" viewBox="0 0 71 42">
  <defs>
    <clipPath id="clip-Custom_Size_1">
      <rect width="71" height="42"/>
    </clipPath>
  </defs>
  <g id="Custom_Size_1" data-name="Custom Size – 1" clip-path="url(#clip-Custom_Size_1)">
    <rect width="71" height="42" fill="#fff"/>
    <g id="Menu_Icon_Expiry_Schedule" data-name="Menu Icon_Expiry Schedule" transform="translate(-7671.088 -1899.634)">
      <path id="Path_917" data-name="Path 917" d="M13.334,0A13.334,13.334,0,1,0,26.668,13.334,13.349,13.349,0,0,0,13.334,0Z" transform="matrix(0.891, -0.454, 0.454, 0.891, 7686.088, 1913.741)" fill="#152a3f"/>
      <ellipse id="Ellipse_63" data-name="Ellipse 63" cx="11.108" cy="11.108" rx="11.108" ry="11.108" transform="matrix(0.891, -0.454, 0.454, 0.891, 7689.075, 1914.712)" fill="#fff"/>
      <path id="Path_1716" data-name="Path 1716" d="M0,12.22V0L4.859.883l5.655,5.126,1.767,6.211L10.514,18.6,8.835,20.723Z" transform="translate(7704.021 1907.348)" fill="#152a3f"/>
      <path id="Path_1715" data-name="Path 1715" d="M13.391,0H3.749A3.749,3.749,0,0,0,0,3.749v9.64a3.749,3.749,0,0,0,3.749,3.749h9.641a3.749,3.749,0,0,0,3.749-3.749V3.749A3.749,3.749,0,0,0,13.391,0Z" transform="translate(7708.763 1922.064)" fill="#152a3f"/>
      <path id="Path_1710" data-name="Path 1710" d="M13.994,0H3.918A3.918,3.918,0,0,0,0,3.918V13.993a3.918,3.918,0,0,0,3.918,3.918H13.994a3.918,3.918,0,0,0,3.918-3.918V3.918A3.918,3.918,0,0,0,13.994,0Zm2.8,13.993a2.8,2.8,0,0,1-2.8,2.8H3.918a2.8,2.8,0,0,1-2.8-2.8V3.918a2.8,2.8,0,0,1,2.8-2.8H13.994a2.8,2.8,0,0,1,2.8,2.8Z" transform="translate(7708.375 1921.677)" fill="#fafafa"/>
      <path id="Path_1711" data-name="Path 1711" d="M113.679,112h-1.12a.56.56,0,0,0-.56.56v1.119a.56.56,0,0,0,.56.56h1.12a.56.56,0,0,0,.56-.56V112.56A.56.56,0,0,0,113.679,112Z" transform="translate(7600.293 1813.596)" fill="#fafafa"/>
      <path id="Path_1712" data-name="Path 1712" d="M113.679,224h-1.12a.56.56,0,0,0-.56.56v1.119a.56.56,0,0,0,.56.56h1.12a.56.56,0,0,0,.56-.56V224.56A.56.56,0,0,0,113.679,224Z" transform="translate(7600.293 1705.514)" fill="#fafafa"/>
      <path id="Path_1713" data-name="Path 1713" d="M113.679,336h-1.12a.56.56,0,0,0-.56.56v1.119a.56.56,0,0,0,.56.56h1.12a.56.56,0,0,0,.56-.56V336.56A.56.56,0,0,0,113.679,336Z" transform="translate(7600.293 1597.432)" fill="#fafafa"/>
      <rect id="Rectangle_4860" data-name="Rectangle 4860" width="6.703" height="1.105" rx="0.552" transform="translate(7715.637 1926.14)" fill="#fafafa"/>
      <rect id="Rectangle_4861" data-name="Rectangle 4861" width="6.703" height="1.179" rx="0.589" transform="translate(7715.637 1930.044)" fill="#fafafa"/>
      <rect id="Rectangle_4862" data-name="Rectangle 4862" width="6.703" height="1.105" rx="0.552" transform="translate(7715.637 1934.021)" fill="#fafafa"/>
    </g>
  </g>
</svg>
