<svg xmlns="http://www.w3.org/2000/svg" xmlns:xlink="http://www.w3.org/1999/xlink" width="71" height="42" viewBox="0 0 71 42">
  <defs>
    <clipPath id="clip-Custom_Size_1">
      <rect width="71" height="42"/>
    </clipPath>
  </defs>
  <g id="Custom_Size_1" data-name="Custom Size – 1" clip-path="url(#clip-Custom_Size_1)">
    <rect width="71" height="42" fill="#fff"/>
    <g id="Menu_Icon_Label_Info" data-name="Menu Icon_Label Info" transform="translate(-6724.053 -2148)">
      <rect id="Rectangle_4985" data-name="Rectangle 4985" width="30.981" height="15.322" transform="translate(6741.053 2158)" fill="#152a3f"/>
      <rect id="Rectangle_4986" data-name="Rectangle 4986" width="22.321" height="10.782" transform="translate(6745.174 2160.27)" fill="#fff"/>
      <rect id="Rectangle_4987" data-name="Rectangle 4987" width="1.135" height="2.837" rx="0.567" transform="translate(6769.196 2164.242)" fill="#fff"/>
      <rect id="Rectangle_4988" data-name="Rectangle 4988" width="1.648" height="4.945" transform="translate(6748.671 2163.077)" fill="#152a3f"/>
      <rect id="Rectangle_4989" data-name="Rectangle 4989" width="0.824" height="4.945" transform="translate(6751.144 2163.077)" fill="#152a3f"/>
      <rect id="Rectangle_4990" data-name="Rectangle 4990" width="0.824" height="4.945" transform="translate(6752.792 2163.077)" fill="#152a3f"/>
      <rect id="Rectangle_4994" data-name="Rectangle 4994" width="0.824" height="4.945" transform="translate(6761.033 2163.077)" fill="#152a3f"/>
      <rect id="Rectangle_4995" data-name="Rectangle 4995" width="1.648" height="4.945" transform="translate(6762.682 2163.077)" fill="#152a3f"/>
      <rect id="Rectangle_4991" data-name="Rectangle 4991" width="0.824" height="4.945" transform="translate(6754.44 2163.077)" fill="#152a3f"/>
      <rect id="Rectangle_4992" data-name="Rectangle 4992" width="1.648" height="4.945" transform="translate(6756.088 2163.077)" fill="#152a3f"/>
      <rect id="Rectangle_4993" data-name="Rectangle 4993" width="1.648" height="4.945" transform="translate(6758.561 2163.077)" fill="#152a3f"/>
      <path id="Path_1551" data-name="Path 1551" d="M232.011,224a8.011,8.011,0,1,0,8.011,8.011A8.02,8.02,0,0,0,232.011,224Z" transform="translate(6538.315 1940.013)" fill="#152a3f"/>
      <path id="Path_1552" data-name="Path 1552" d="M230.66,224a6.66,6.66,0,1,0,6.66,6.66A6.667,6.667,0,0,0,230.66,224Zm.987,9.373a.987.987,0,0,1-1.973,0V229.92a.987.987,0,1,1,1.973,0Zm-.987-4.933a.987.987,0,1,1,.987-.987A.987.987,0,0,1,230.66,228.44Z" transform="translate(6539.668 1941.348)" fill="#fafafa"/>
    </g>
  </g>
</svg>
