<svg xmlns="http://www.w3.org/2000/svg" xmlns:xlink="http://www.w3.org/1999/xlink" width="71" height="42" viewBox="0 0 71 42">
  <defs>
    <clipPath id="clip-Custom_Size_1">
      <rect width="71" height="42"/>
    </clipPath>
  </defs>
  <g id="Custom_Size_1" data-name="Custom Size – 1" clip-path="url(#clip-Custom_Size_1)">
    <rect width="71" height="42" fill="#fff"/>
    <g id="Menu_Icon_LCD_Assign" data-name="Menu Icon_LCD Assign" transform="translate(-7198.031 -1584)">
      <g id="Rectangle_4896" data-name="Rectangle 4896" transform="translate(7201.031 1590)" fill="none" stroke="#152a3f" stroke-width="3">
        <rect width="58.279" height="17.576" rx="1" stroke="none"/>
        <rect x="1.5" y="1.5" width="55.279" height="14.576" rx="0.5" fill="none"/>
      </g>
      <text id="LCD" transform="translate(7224.171 1601.288)" fill="#152a3f" font-size="7" font-family="SourceSansPro-Black, Source Sans Pro" font-weight="800"><tspan x="0" y="0">LCD</tspan></text>
      <rect id="Rectangle_5020" data-name="Rectangle 5020" width="30" height="13" rx="6.5" transform="translate(7237 1600)" fill="#fafafa"/>
      <path id="Path_1505" data-name="Path 1505" d="M-44.738,148.431a5.233,5.233,0,0,0-.125-1.152,5.379,5.379,0,0,0-1.451-2.651,5.355,5.355,0,0,0-3.8-1.575l-6.913,0a5.378,5.378,0,0,0-3.8,1.573,5.378,5.378,0,0,0,0,7.606,5.344,5.344,0,0,0,3.795,1.578h5.7a.384.384,0,0,0,.275-.114.384.384,0,0,0,0-.543l-.109-.109a6.466,6.466,0,0,1-1.4-2.075.384.384,0,0,0-.356-.236l-4.1,0a2.306,2.306,0,0,1-2.306-2.306,2.306,2.306,0,0,1,2.306-2.306l6.935,0a2.3,2.3,0,0,1,2.3,2.3,1.575,1.575,0,0,0,1.527,1.527,1.537,1.537,0,0,0,1.005-.375A1.537,1.537,0,0,0-44.738,148.431Z" transform="translate(7300.402 1458.069)" fill="#152a3f"/>
      <path id="Path_1506" data-name="Path 1506" d="M187.763,148.374A5.378,5.378,0,0,0,182.385,143l-5.7,0a.386.386,0,0,0-.266.663l.1.1a6.454,6.454,0,0,1,1.4,2.075.384.384,0,0,0,.356.236l4.088,0a2.306,2.306,0,1,1,0,4.612l-5.093,0-.046,0-1.777-.005a2.3,2.3,0,0,1-2.3-2.3,1.575,1.575,0,0,0-1.527-1.527,1.532,1.532,0,0,0-1.532,1.532,5.333,5.333,0,0,0,.326,1.847c.03.084.065.163.1.244s.073.16.109.239.076.158.117.231l.117.2c.081.136.168.266.261.4a5.354,5.354,0,0,0,.367.443l.19.19.016.016.182.144c.062.057.139.106.209.177l.092.092.215.16.1.071.19.125.03.03a5.378,5.378,0,0,0,2.763.763h6.916A5.378,5.378,0,0,0,187.763,148.374Z" transform="translate(7078.381 1458.126)" fill="#152a3f"/>
    </g>
  </g>
</svg>
