<svg xmlns="http://www.w3.org/2000/svg" xmlns:xlink="http://www.w3.org/1999/xlink" width="71" height="42" viewBox="0 0 71 42">
  <defs>
    <clipPath id="clip-Custom_Size_1">
      <rect width="71" height="42"/>
    </clipPath>
  </defs>
  <g id="Custom_Size_1" data-name="Custom Size – 1" clip-path="url(#clip-Custom_Size_1)">
    <rect width="71" height="42" fill="#fff"/>
    <g id="Menu_Icon_Map" data-name="Menu Icon_Map" transform="translate(-7671.144 -1518.874)">
      <path id="Path_1558" data-name="Path 1558" d="M27.718,330.172h-5.96a.387.387,0,0,0-.361.249l-3.149,8.256a.386.386,0,0,0,.361.524H44.08a.386.386,0,0,0,.361-.524h0l-3.149-8.256a.387.387,0,0,0-.361-.249H27.718Zm6.769.772h6.178l.494,1.3-12.073,4.294-4.3-5.591h9.7Zm-5.414,6.415h0l7.2-2.561,2.794,3.63h-13Zm-7.048-6.415h1.784l4.513,5.863-4.557,1.621H19.17Zm18.022,7.484-3-3.9,4.393-1.562,2.085,5.465Z" transform="translate(7674.922 1212.923)" fill="#152a3f"/>
      <path id="Path_1559" data-name="Path 1559" d="M87.114,0A7.122,7.122,0,0,0,80,7.114c0,2.29,1.126,5.249,3.346,8.8a45.508,45.508,0,0,0,3.3,4.608.608.608,0,0,0,.932,0,45.5,45.5,0,0,0,3.3-4.608c2.22-3.546,3.346-6.505,3.346-8.8A7.122,7.122,0,0,0,87.114,0Zm3.175,8.621a4.745,4.745,0,0,1-2.983,2.974.609.609,0,0,1-.385,0A4.745,4.745,0,0,1,83.94,8.621a.608.608,0,1,1,1.151-.388,3.525,3.525,0,0,0,1.416,1.823V6.42h-.694a.607.607,0,1,1,0-1.215h.694V4.511a.607.607,0,1,1,1.215,0v.694h.694a.607.607,0,0,1,0,1.215h-.694v3.635a3.526,3.526,0,0,0,1.416-1.823.608.608,0,1,1,1.151.388Z" transform="translate(7619.371 1526.874)" fill="#152a3f"/>
    </g>
  </g>
</svg>
