<svg xmlns="http://www.w3.org/2000/svg" xmlns:xlink="http://www.w3.org/1999/xlink" width="71" height="42" viewBox="0 0 71 42">
  <defs>
    <clipPath id="clip-path">
      <rect id="Rectangle_4180" data-name="Rectangle 4180" width="29" height="19" transform="translate(0 -0.046)" fill="#152a3f"/>
    </clipPath>
    <clipPath id="clip-path-2">
      <rect id="Rectangle_4181" data-name="Rectangle 4181" width="30" height="19" transform="translate(-0.484 -0.046)" fill="#152a3f"/>
    </clipPath>
    <clipPath id="clip-Custom_Size_1">
      <rect width="71" height="42"/>
    </clipPath>
  </defs>
  <g id="Custom_Size_1" data-name="Custom Size – 1" clip-path="url(#clip-Custom_Size_1)">
    <rect width="71" height="42" fill="#fff"/>
    <g id="Menu_Icon_Multi_Assign" data-name="Menu Icon_Multi Assign" transform="translate(-165 -59.454)">
      <g id="Mask_Group_15" data-name="Mask Group 15" transform="translate(171 71.5)" clip-path="url(#clip-path)">
        <g id="Group_3849" data-name="Group 3849" transform="translate(3.151 1.996)">
          <g id="Group_3848" data-name="Group 3848" transform="translate(0 0)">
            <g id="Group_3847" data-name="Group 3847" transform="translate(0)">
              <g id="Group_3844" data-name="Group 3844" transform="translate(0 0.003)">
                <g id="Group_3843" data-name="Group 3843">
                  <path id="Path_1572" data-name="Path 1572" d="M-40.148,149.829a6.592,6.592,0,0,0-.157-1.451,6.776,6.776,0,0,0-1.827-3.34,6.746,6.746,0,0,0-4.791-1.985l-8.71,0a6.776,6.776,0,0,0-4.782,1.981,6.776,6.776,0,0,0-.006,9.582,6.732,6.732,0,0,0,4.781,1.988h7.187a.484.484,0,0,0,.346-.144.484.484,0,0,0,0-.684l-.137-.137a8.146,8.146,0,0,1-1.766-2.615.484.484,0,0,0-.448-.3l-5.171,0a2.905,2.905,0,0,1-2.905-2.906,2.905,2.905,0,0,1,2.905-2.905l8.737,0a2.9,2.9,0,0,1,2.9,2.9,1.984,1.984,0,0,0,1.923,1.923,1.936,1.936,0,0,0,1.266-.472A1.936,1.936,0,0,0-40.148,149.829Z" transform="translate(62.403 -143.053)" fill="#152a3f"/>
                </g>
              </g>
              <g id="Group_3846" data-name="Group 3846" transform="translate(13.186)">
                <g id="Group_3845" data-name="Group 3845">
                  <path id="Path_1573" data-name="Path 1573" d="M192.357,149.772A6.776,6.776,0,0,0,185.581,143l-7.176,0a.486.486,0,0,0-.335.835l.127.127a8.131,8.131,0,0,1,1.759,2.615.484.484,0,0,0,.448.3l5.15,0a2.905,2.905,0,1,1,0,5.811l-6.417,0-.058,0-2.238-.007a2.9,2.9,0,0,1-2.9-2.9,1.984,1.984,0,0,0-1.923-1.923,1.93,1.93,0,0,0-1.93,1.93,6.718,6.718,0,0,0,.411,2.327c.038.106.082.205.123.308s.092.2.137.3.1.2.147.291l.147.257c.1.171.212.335.329.5a6.749,6.749,0,0,0,.462.558l.24.24.021.02.229.181c.079.072.175.133.263.222l.116.116.27.2.13.089.24.157.038.038a6.776,6.776,0,0,0,3.48.962h8.713A6.776,6.776,0,0,0,192.357,149.772Z" transform="translate(-170.085 -142.993)" fill="#152a3f"/>
                </g>
              </g>
            </g>
          </g>
        </g>
      </g>
      <g id="Mask_Group_16" data-name="Mask Group 16" transform="translate(198.484 71.5)" clip-path="url(#clip-path-2)">
        <g id="Group_3856" data-name="Group 3856" transform="translate(-8.814 1.996)">
          <g id="Group_3855" data-name="Group 3855" transform="translate(0 0)">
            <g id="Group_3854" data-name="Group 3854">
              <g id="Group_3851" data-name="Group 3851" transform="translate(13.203 0.003)">
                <g id="Group_3850" data-name="Group 3850">
                  <path id="Path_1574" data-name="Path 1574" d="M-62.4,149.829a6.593,6.593,0,0,1,.157-1.451,6.776,6.776,0,0,1,1.827-3.34,6.746,6.746,0,0,1,4.791-1.985l8.709,0a6.776,6.776,0,0,1,4.782,1.981,6.776,6.776,0,0,1,.006,9.582,6.732,6.732,0,0,1-4.781,1.988H-54.1a.484.484,0,0,1-.346-.144.484.484,0,0,1,0-.684l.137-.137a8.146,8.146,0,0,0,1.766-2.615.484.484,0,0,1,.448-.3l5.171,0a2.905,2.905,0,0,0,2.905-2.906,2.905,2.905,0,0,0-2.905-2.905l-8.737,0a2.9,2.9,0,0,0-2.9,2.9,1.984,1.984,0,0,1-1.923,1.923,1.936,1.936,0,0,1-1.266-.472A1.936,1.936,0,0,1-62.4,149.829Z" transform="translate(62.403 -143.053)" fill="#152a3f"/>
                </g>
              </g>
              <g id="Group_3853" data-name="Group 3853">
                <g id="Group_3852" data-name="Group 3852">
                  <path id="Path_1575" data-name="Path 1575" d="M170.085,149.772A6.776,6.776,0,0,1,176.861,143l7.176,0a.486.486,0,0,1,.335.835l-.127.127a8.131,8.131,0,0,0-1.759,2.615.484.484,0,0,1-.448.3l-5.15,0a2.905,2.905,0,1,0,0,5.811l6.417,0,.058,0,2.238-.007a2.9,2.9,0,0,0,2.9-2.9,1.984,1.984,0,0,1,1.923-1.923,1.93,1.93,0,0,1,1.93,1.93,6.719,6.719,0,0,1-.411,2.327c-.038.106-.082.205-.123.308s-.092.2-.137.3-.1.2-.147.291l-.147.257c-.1.171-.212.335-.329.5a6.747,6.747,0,0,1-.462.558l-.24.24-.021.02-.229.181c-.079.072-.174.133-.264.222l-.116.116-.27.2-.13.089-.24.157-.038.038a6.775,6.775,0,0,1-3.48.962h-8.713A6.776,6.776,0,0,1,170.085,149.772Z" transform="translate(-170.085 -142.993)" fill="#152a3f"/>
                </g>
              </g>
            </g>
          </g>
        </g>
      </g>
    </g>
  </g>
</svg>
