<svg xmlns="http://www.w3.org/2000/svg" width="72.993" height="37.372" viewBox="0 0 72.993 37.372">
  <g id="Group_4710" data-name="Group 4710" transform="translate(-67.162 -229.945)">
    <g id="Group_4709" data-name="Group 4709" transform="translate(67.162 229.945)">
      <g id="Group_11" data-name="Group 11" transform="translate(0 0)">
        <g id="Group_10" data-name="Group 10" transform="translate(0)">
          <g id="Group_7" data-name="Group 7" transform="translate(0 0.006)">
            <g id="Group_6" data-name="Group 6">
              <path id="Path_16" data-name="Path 16" d="M-26.2,154.075a10.722,10.722,0,0,0-.256-2.36,11.022,11.022,0,0,0-2.973-5.433,10.974,10.974,0,0,0-7.793-3.229l-14.167.006a11.021,11.021,0,0,0-7.778,3.223,11.021,11.021,0,0,0-.01,15.586A10.95,10.95,0,0,0-51.4,165.1h11.69a.787.787,0,0,0,.563-.234.787.787,0,0,0-.006-1.113l-.223-.223a13.251,13.251,0,0,1-2.872-4.253.787.787,0,0,0-.729-.484l-8.411.006a4.726,4.726,0,0,1-4.726-4.726,4.726,4.726,0,0,1,4.726-4.726l14.211.006a4.723,4.723,0,0,1,4.72,4.721,3.228,3.228,0,0,0,3.128,3.128,3.149,3.149,0,0,0,2.06-.768A3.149,3.149,0,0,0-26.2,154.075Z" transform="translate(62.403 -143.053)" fill="#152a3f"/>
            </g>
          </g>
          <g id="Group_9" data-name="Group 9" transform="translate(21.448)">
            <g id="Group_8" data-name="Group 8">
              <path id="Path_17" data-name="Path 17" d="M206.312,154.02A11.022,11.022,0,0,0,195.29,143l-11.673-.006a.79.79,0,0,0-.546,1.358l.206.206a13.225,13.225,0,0,1,2.861,4.253.787.787,0,0,0,.729.484l8.378.006a4.726,4.726,0,1,1,0,9.452l-10.437-.006-.095.006-3.641-.011a4.723,4.723,0,0,1-4.72-4.72,3.228,3.228,0,0,0-3.128-3.128,3.139,3.139,0,0,0-3.14,3.14,10.928,10.928,0,0,0,.668,3.785c.061.173.134.334.2.5s.15.328.223.49.156.323.239.473l.239.418c.167.278.345.546.534.813a10.974,10.974,0,0,0,.751.907l.39.39.033.033.373.3c.128.117.284.217.429.362l.189.189.44.328.212.145.39.256.061.061a11.021,11.021,0,0,0,5.661,1.564H195.29A11.022,11.022,0,0,0,206.312,154.02Z" transform="translate(-170.085 -142.993)" fill="#152a3f"/>
            </g>
          </g>
        </g>
      </g>
    </g>
    <g id="Group_4708" data-name="Group 4708" transform="translate(5.107 -48.329)">
      <g id="bg" transform="translate(104.412 285.011)" fill="#152a3f" stroke="#fafafa" stroke-width="3">
        <rect width="30.636" height="30.636" rx="10" stroke="none"/>
        <rect x="1.5" y="1.5" width="27.636" height="27.636" rx="8.5" fill="none"/>
      </g>
      <path id="Path_1810" data-name="Path 1810" d="M-121.144,219.7a4.858,4.858,0,0,0-2.66.772,3.941,3.941,0,0,1,.654.635,4.086,4.086,0,0,1,2.006-.5,3.936,3.936,0,0,1,4.03,4.148,3.929,3.929,0,0,1-4.03,4.121,3.913,3.913,0,0,1-4-4.121,4.422,4.422,0,0,1,.445-1.988,2.523,2.523,0,0,0-.654-.7,5.09,5.09,0,0,0-.753,2.687,4.852,4.852,0,0,0,4.974,5.056,4.911,4.911,0,0,0,5-5.056,4.924,4.924,0,0,0-5.011-5.056Zm-4.475,8.623a3.781,3.781,0,0,1-.826.254A7.365,7.365,0,0,1-128,228.7h-2.941v-7.915H-128a8.143,8.143,0,0,1,1.552.127,3.535,3.535,0,0,1,2.887,3.84,4.835,4.835,0,0,1-.4,1.988,3.092,3.092,0,0,0,.635.735,5.2,5.2,0,0,0,.726-2.732,4.418,4.418,0,0,0-3.6-4.7,7.777,7.777,0,0,0-1.652-.154H-131.9V229.6h4.048a7.767,7.767,0,0,0,1.652-.145,4.617,4.617,0,0,0,1.225-.445,2.594,2.594,0,0,1-.644-.69Z" transform="translate(243.746 75.575)" fill="#fafafa"/>
    </g>
  </g>
</svg>
