<svg xmlns="http://www.w3.org/2000/svg" xmlns:xlink="http://www.w3.org/1999/xlink" width="71" height="42" viewBox="0 0 71 42">
  <defs>
    <clipPath id="clip-Custom_Size_1">
      <rect width="71" height="42"/>
    </clipPath>
  </defs>
  <g id="Custom_Size_1" data-name="Custom Size – 1" clip-path="url(#clip-Custom_Size_1)">
    <rect width="71" height="42" fill="#fff"/>
    <g id="Menu_Icon_Page_Flipping" data-name="Menu Icon_Page Flipping" transform="translate(-6722.673 -2328.794)">
      <path id="Path_1715" data-name="Path 1715" d="M9.263,281.883a.729.729,0,0,0-1.031,1.031l.825.825H5.709A3.946,3.946,0,0,1,1.767,279.8v-2.444a.728.728,0,1,0-1.455,0V279.8a5.4,5.4,0,0,0,5.4,5.4H9.057l-.825.825a.728.728,0,0,0,.515,1.243.741.741,0,0,0,.515-.212l2.068-2.068a.728.728,0,0,0,0-1.031Z" transform="translate(6744.361 2075.944)" fill="#152a3f"/>
      <path id="Path_1716" data-name="Path 1716" d="M244.174,230.306H232.221a.73.73,0,0,0-.728.728v11.953a.73.73,0,0,0,.728.728h11.953a.73.73,0,0,0,.728-.728V231.034A.726.726,0,0,0,244.174,230.306Zm-.728,11.953h-10.5v-10.5h10.5Z" transform="translate(6527.201 2119.454)" fill="#152a3f"/>
      <path id="Path_1717" data-name="Path 1717" d="M272.316,2.069h-3.348l.825-.825A.729.729,0,0,0,268.763.214L266.7,2.282a.728.728,0,0,0,0,1.031l2.068,2.068a.73.73,0,0,0,.515.212.741.741,0,0,0,.515-.212.728.728,0,0,0,0-1.031l-.825-.825h3.347a3.946,3.946,0,0,1,3.942,3.942V9.911a.728.728,0,0,0,1.455,0V7.467A5.407,5.407,0,0,0,272.316,2.069Z" transform="translate(6494.328 2335.794)" fill="#152a3f"/>
      <path id="Path_1718" data-name="Path 1718" d="M13.893.025H1.94a.73.73,0,0,0-.728.728V12.706a.73.73,0,0,0,.728.728H13.893a.73.73,0,0,0,.728-.728V.753A.726.726,0,0,0,13.893.025Z" transform="translate(6743.516 2335.771)" fill="#152a3f"/>
    </g>
  </g>
</svg>
