<svg xmlns="http://www.w3.org/2000/svg" xmlns:xlink="http://www.w3.org/1999/xlink" width="71" height="42" viewBox="0 0 71 42">
  <defs>
    <clipPath id="clip-path">
      <rect id="Rectangle_4945" data-name="Rectangle 4945" width="71" height="42"/>
    </clipPath>
    <clipPath id="clip-path-2">
      <rect id="Rectangle_4209" data-name="Rectangle 4209" width="36" height="29" transform="translate(-0.068 -0.076)" fill="#142a3f"/>
    </clipPath>
  </defs>
  <g id="Power_Rail_Assign" clip-path="url(#clip-path)">
    <rect width="71" height="42" fill="#fff"/>
    <g id="Custom_Size_1" data-name="Custom Size – 1" clip-path="url(#clip-path)">
      <path id="Path_1754" data-name="Path 1754" d="M0,0H71V42H0Z" fill="#fafafa"/>
      <g id="iPhone_14_Pro_1" data-name="iPhone 14 Pro – 1" transform="translate(7.068 6.076)" clip-path="url(#clip-path-2)">
        <g id="Group_3257" data-name="Group 3257" transform="translate(-0.006 2.712)">
          <path id="Path_1453" data-name="Path 1453" d="M-10158.553,4368.787l-1.156-2.039a4.462,4.462,0,0,1,0-1.784,3.765,3.765,0,0,1,.85-1.434l23.933-.284.893,3.5-2.9,2.8V4379.6l4,2.913v2.364h-28.039v-2.665l2.635-2.237v-10.787Z" transform="translate(10161.442 -4362.246)" fill="#031e37"/>
          <g id="noun-rails-5008769" transform="translate(0)">
            <g id="Group_3256" data-name="Group 3256">
              <path id="Path_1427" data-name="Path 1427" d="M2.453,22.3C2.2,22.3,2,21.936,2,21.5c0-2.205,1.014-4,2.263-4,.25,0,.453.362.453.8s-.2.8-.453.8c-.751,0-1.358,1.075-1.358,2.4C2.905,21.944,2.7,22.3,2.453,22.3Z" transform="translate(-1.088 -17.496)" fill="#fff"/>
              <path id="Path_1428" data-name="Path 1428" d="M18.263,22.3c-.25,0-.453-.362-.453-.8,0-1.326-.608-2.4-1.358-2.4-.25,0-.453-.362-.453-.8s.2-.8.453-.8c1.249,0,2.263,1.793,2.263,4C18.716,21.944,18.514,22.3,18.263,22.3Z" transform="translate(-8.75 -17.496)" fill="#fff"/>
              <path id="Path_1429" data-name="Path 1429" d="M10.979,19.1H6.453C6.2,19.1,6,18.738,6,18.3s.2-.8.453-.8h4.527c.25,0,.453.362.453.8S11.23,19.1,10.979,19.1Z" transform="translate(-3.277 -17.496)" fill="#fff"/>
              <path id="Path_1430" data-name="Path 1430" d="M20.453,23.9c-.25,0-.453-.362-.453-.8v-.8c0-.442.2-.8.453-.8s.453.362.453.8v.8C20.905,23.542,20.7,23.9,20.453,23.9Z" transform="translate(-10.938 -18.295)" fill="#fff"/>
              <path id="Path_1431" data-name="Path 1431" d="M2.453,23.9C2.2,23.9,2,23.539,2,23.1v-.8c0-.442.2-.8.453-.8s.453.362.453.8v.8C2.905,23.542,2.7,23.9,2.453,23.9Z" transform="translate(-1.088 -19.2)" fill="#fff"/>
              <path id="Path_1432" data-name="Path 1432" d="M13.452,26.5c-.215,0-.4-.272-.444-.639a1.035,1.035,0,0,1,.265-.9l3.169-2.4a.3.3,0,0,1,.453.083,1.142,1.142,0,0,1,.181.746.872.872,0,0,1-.281.642l-3.169,2.4a.292.292,0,0,1-.175.064Z" transform="translate(-7.107 -18.493)" fill="#fff"/>
              <path id="Path_1433" data-name="Path 1433" d="M13.453,37.506c-.25,0-.453-.362-.453-.8V26.3c0-.442.2-.8.453-.8s.453.362.453.8V36.705C13.905,37.147,13.7,37.506,13.453,37.506Z" transform="translate(-7.108 -19.093)" fill="#fff"/>
              <path id="Path_1434" data-name="Path 1434" d="M17.525,42.5a.281.281,0,0,1-.143-.042l-4.074-2.4a1.028,1.028,0,0,1-.287-1.014c.079-.42.336-.647.573-.507l4.074,2.4a.96.96,0,0,1,.309.89C17.942,42.22,17.75,42.506,17.525,42.5Z" transform="translate(-7.106 -21.688)" fill="#fff"/>
              <path id="Path_1435" data-name="Path 1435" d="M4,25.7a.138.138,0,0,1-.1-.053L2.135,23.725a.856.856,0,0,1-.157-.513,1.236,1.236,0,0,1,.1-.6c.073-.138.171-.163.254-.067L4.1,24.469a1.076,1.076,0,0,1,.148.718c-.024.3-.128.512-.247.512Z" transform="translate(-1.075 -18.492)" fill="#fff"/>
              <path id="Path_1436" data-name="Path 1436" d="M9.453,37.506c-.25,0-.453-.362-.453-.8V26.3c0-.442.2-.8.453-.8s.453.362.453.8V36.705C9.905,37.147,9.7,37.506,9.453,37.506Z" transform="translate(-6.729 -19.093)" fill="#fff"/>
              <path id="Path_1437" data-name="Path 1437" d="M.289,42.01c-.141,0-.261-.25-.283-.589A1.044,1.044,0,0,1,.2,40.643l2.592-2.107c.151-.123.314.076.362.445a1.131,1.131,0,0,1-.181.889L.381,41.976a.141.141,0,0,1-.091.034Z" transform="translate(0.006 -21.195)" fill="#fff"/>
              <path id="Path_1438" data-name="Path 1438" d="M.453,45.5C.2,45.5,0,45.139,0,44.7V42.3c0-.438.2-.8.453-.8s.453.362.453.8v2.4C.905,45.143.7,45.5.453,45.5Z" transform="translate(0.006 -22.287)" fill="#fff"/>
              <path id="Path_1439" data-name="Path 1439" d="M22.453,45.5c-.25,0-.453-.362-.453-.8V42.3c0-.442.2-.8.453-.8s.453.362.453.8v2.4C22.905,45.144,22.7,45.5,22.453,45.5Z" transform="translate(-12.033 -22.287)" fill="#fff"/>
              <path id="Path_1440" data-name="Path 1440" d="M10.411,46.1H.453C.2,46.1,0,45.738,0,45.3s.2-.8.453-.8h9.959c.25,0,.453.362.453.8S10.663,46.1,10.411,46.1Z" transform="translate(0.006 -22.886)" fill="#fff"/>
              <path id="Path_1441" data-name="Path 1441" d="M58.263,22.3c-.25,0-.453-.362-.453-.8,0-1.326-.608-2.4-1.358-2.4-.25,0-.453-.362-.453-.8s.2-.8.453-.8c1.249,0,2.263,1.793,2.263,4C58.716,21.944,58.514,22.3,58.263,22.3Z" transform="translate(-30.64 -17.496)" fill="#fff"/>
              <path id="Path_1442" data-name="Path 1442" d="M34.559,19.1H16.453c-.25,0-.453-.362-.453-.8s.2-.8.453-.8H34.559c.25,0,.453.362.453.8S34.813,19.1,34.559,19.1Z" transform="translate(-8.75 -17.496)" fill="#fff"/>
              <path id="Path_1443" data-name="Path 1443" d="M60.453,23.9c-.25,0-.453-.362-.453-.8v-.8c0-.442.2-.8.453-.8s.453.362.453.8v.8C60.905,23.542,60.7,23.9,60.453,23.9Z" transform="translate(-32.829 -18.295)" fill="#fff"/>
              <path id="Path_1444" data-name="Path 1444" d="M53.452,26.5c-.215,0-.4-.272-.444-.639a1.035,1.035,0,0,1,.265-.9l3.169-2.4a.3.3,0,0,1,.453.083,1.142,1.142,0,0,1,.181.746.872.872,0,0,1-.282.642l-3.169,2.4a.292.292,0,0,1-.174.064Z" transform="translate(-28.997 -18.493)" fill="#fff"/>
              <path id="Path_1445" data-name="Path 1445" d="M53.453,37.506c-.25,0-.453-.362-.453-.8V26.3c0-.442.2-.8.453-.8s.453.362.453.8V36.705C53.905,37.147,53.7,37.506,53.453,37.506Z" transform="translate(-28.998 -19.093)" fill="#fff"/>
              <path id="Path_1446" data-name="Path 1446" d="M57.525,42.5a.281.281,0,0,1-.143-.042l-4.074-2.4a1.028,1.028,0,0,1-.287-1.014c.079-.42.336-.647.573-.507l4.074,2.4a.96.96,0,0,1,.309.89C57.942,42.22,57.75,42.506,57.525,42.5Z" transform="translate(-28.996 -21.688)" fill="#fff"/>
              <path id="Path_1447" data-name="Path 1447" d="M62.453,45.5c-.25,0-.453-.362-.453-.8V42.3c0-.442.2-.8.453-.8s.453.362.453.8v2.4C62.905,45.144,62.7,45.5,62.453,45.5Z" transform="translate(-33.924 -22.287)" fill="#fff"/>
              <path id="Path_1448" data-name="Path 1448" d="M40.559,46.1H22.453c-.25,0-.453-.362-.453-.8s.2-.8.453-.8H40.559c.25,0,.453.362.453.8S40.813,46.1,40.559,46.1Z" transform="translate(-12.033 -22.886)" fill="#fff"/>
              <path id="Path_1449" data-name="Path 1449" d="M42.5,41.5c.25,0,.453.362.453.8Z" transform="translate(-13.974 -22.287)" fill="#fff"/>
              <path id="Path_1450" data-name="Path 1450" d="M31.559,40.1H13.453c-.25,0-.453-.362-.453-.8s.2-.8.453-.8H31.559c.25,0,.453.362.453.8S31.813,40.1,31.559,40.1Z" transform="translate(-7.108 -21.688)" fill="#fff"/>
              <path id="Path_1451" data-name="Path 1451" d="M31.559,27.1H13.453c-.25,0-.453-.362-.453-.8s.2-.8.453-.8H31.559c.25,0,.453.362.453.8S31.813,27.1,31.559,27.1Z" transform="translate(-7.108 -19.093)" fill="#fff"/>
            </g>
          </g>
        </g>
        <g id="Menu_Icon_Assign" data-name="Menu Icon_Assign" transform="translate(18.41 11.696)">
          <path id="Path_1505" data-name="Path 1505" d="M-52.179,146.167a3.029,3.029,0,0,0-.072-.667,3.112,3.112,0,0,0-.84-1.533,3.1,3.1,0,0,0-2.2-.912h-4a3.112,3.112,0,0,0-2.2.91,3.112,3.112,0,0,0,0,4.4,3.093,3.093,0,0,0,2.2.913h3.3a.222.222,0,0,0,.159-.066.222.222,0,0,0,.066-.158.222.222,0,0,0-.066-.158l-.063-.063a3.743,3.743,0,0,1-.812-1.2.222.222,0,0,0-.206-.135H-59.29a1.335,1.335,0,0,1-1.335-1.335,1.335,1.335,0,0,1,1.335-1.335h4.014a1.334,1.334,0,0,1,1.333,1.333.911.911,0,0,0,.884.884.889.889,0,0,0,.582-.217A.889.889,0,0,0-52.179,146.167Z" transform="translate(62.403 -143.052)" fill="#142a3f"/>
          <path id="Path_1506" data-name="Path 1506" d="M180.317,146.112A3.112,3.112,0,0,0,177.205,143h-3.3a.223.223,0,0,0-.154.384l.058.058a3.736,3.736,0,0,1,.808,1.2.222.222,0,0,0,.206.135h2.366a1.335,1.335,0,1,1,0,2.67h-2.977l-1.028,0a1.334,1.334,0,0,1-1.333-1.333.911.911,0,0,0-.884-.884.887.887,0,0,0-.887.887,3.087,3.087,0,0,0,.189,1.069c.017.049.038.094.057.142s.042.093.063.138.045.09.068.135l.068.118c.045.078.1.154.151.23a3.11,3.11,0,0,0,.212.256l.11.11.009.009.106.083c.036.033.08.061.121.1l.053.053.124.093.06.041.11.072.017.017a3.112,3.112,0,0,0,1.6.442h4a3.112,3.112,0,0,0,3.112-3.115Z" transform="translate(-164.027 -142.996)" fill="#152a3f"/>
          <path id="Path_1505-2" data-name="Path 1505" d="M-56.805,143.054h-2.488a3.112,3.112,0,0,0-2.2.91,3.112,3.112,0,0,0,0,4.4,3.093,3.093,0,0,0,2.2.913h2.491c-.018.03.028-1.7,0-1.7l-2.485-.076a1.335,1.335,0,0,1-1.335-1.335,1.335,1.335,0,0,1,1.335-1.335h2.485A7.429,7.429,0,0,0-56.805,143.054Z" transform="translate(62.403 -143.051)" fill="#fff"/>
        </g>
      </g>
    </g>
  </g>
</svg>
