<svg xmlns="http://www.w3.org/2000/svg" xmlns:xlink="http://www.w3.org/1999/xlink" width="71" height="42" viewBox="0 0 71 42">
  <defs>
    <clipPath id="clip-path">
      <rect id="Rectangle_4945" data-name="Rectangle 4945" width="71" height="42"/>
    </clipPath>
    <clipPath id="clip-path-2">
      <rect id="Rectangle_4209" data-name="Rectangle 4209" width="42" height="27" transform="translate(0.752 0.863)" fill="#142a3f"/>
    </clipPath>
  </defs>
  <g id="Power_Rail_Unassign" clip-path="url(#clip-path)">
    <rect width="71" height="42" fill="#fff"/>
    <g id="Custom_Size_1" data-name="Custom Size – 1" clip-path="url(#clip-path)">
      <path id="Path_1754" data-name="Path 1754" d="M0,0H71V42H0Z" fill="#fafafa"/>
      <g id="iPhone_14_Pro_1" data-name="iPhone 14 Pro – 1" transform="translate(7.248 6.137)" clip-path="url(#clip-path-2)">
        <g id="Group_3257" data-name="Group 3257" transform="translate(0.039 2.719)">
          <path id="Path_1453" data-name="Path 1453" d="M-10158.567,4368.755l-1.149-2.027a4.447,4.447,0,0,1,0-1.774,3.754,3.754,0,0,1,.845-1.425l23.8-.283.889,3.482-2.882,2.781v10l3.981,2.9v2.351h-27.881v-2.649l2.62-2.225v-10.725Z" transform="translate(10161.44 -4362.251)" fill="#031e37"/>
          <g id="noun-rails-5008769" transform="translate(0)">
            <g id="Group_3256" data-name="Group 3256">
              <path id="Path_1427" data-name="Path 1427" d="M2.45,22.271c-.248,0-.45-.36-.45-.8C2,19.282,3.008,17.5,4.25,17.5c.248,0,.45.36.45.8s-.2.8-.45.8c-.746,0-1.35,1.069-1.35,2.387C2.9,21.919,2.7,22.271,2.45,22.271Z" transform="translate(-1.093 -17.496)" fill="#fff"/>
              <path id="Path_1428" data-name="Path 1428" d="M18.25,22.271c-.248,0-.45-.36-.45-.8,0-1.319-.6-2.387-1.35-2.387-.248,0-.45-.36-.45-.8s.2-.8.45-.8c1.242,0,2.25,1.782,2.25,3.979C18.7,21.919,18.5,22.271,18.25,22.271Z" transform="translate(-8.791 -17.496)" fill="#fff"/>
              <path id="Path_1429" data-name="Path 1429" d="M10.951,19.092H6.45c-.248,0-.45-.36-.45-.8s.2-.8.45-.8h4.5c.248,0,.45.36.45.8S11.2,19.092,10.951,19.092Z" transform="translate(-3.292 -17.496)" fill="#fff"/>
              <path id="Path_1430" data-name="Path 1430" d="M20.45,23.887c-.248,0-.45-.36-.45-.8v-.8c0-.439.2-.8.45-.8s.45.36.45.8v.8C20.9,23.531,20.7,23.887,20.45,23.887Z" transform="translate(-10.99 -18.313)" fill="#fff"/>
              <path id="Path_1431" data-name="Path 1431" d="M2.45,23.887c-.248,0-.45-.36-.45-.8v-.8c0-.439.2-.8.45-.8s.45.36.45.8v.8C2.9,23.531,2.7,23.887,2.45,23.887Z" transform="translate(-1.093 -19.214)" fill="#fff"/>
              <path id="Path_1432" data-name="Path 1432" d="M13.449,26.477c-.213,0-.4-.27-.441-.636a1.029,1.029,0,0,1,.264-.891l3.151-2.387a.3.3,0,0,1,.45.083,1.135,1.135,0,0,1,.18.742.867.867,0,0,1-.279.638l-3.151,2.387a.291.291,0,0,1-.174.064Z" transform="translate(-7.141 -18.515)" fill="#fff"/>
              <path id="Path_1433" data-name="Path 1433" d="M13.45,37.437c-.248,0-.45-.36-.45-.8V26.3c0-.439.2-.8.45-.8s.45.36.45.8V36.642C13.9,37.081,13.7,37.437,13.45,37.437Z" transform="translate(-7.142 -19.129)" fill="#fff"/>
              <path id="Path_1434" data-name="Path 1434" d="M17.5,42.478a.279.279,0,0,1-.142-.041L13.306,40.05a1.023,1.023,0,0,1-.285-1.008c.078-.418.334-.644.57-.5l4.051,2.387a.954.954,0,0,1,.307.885C17.914,42.2,17.723,42.483,17.5,42.478Z" transform="translate(-7.139 -21.783)" fill="#fff"/>
              <path id="Path_1435" data-name="Path 1435" d="M3.988,25.681a.137.137,0,0,1-.1-.052L2.134,23.718a.851.851,0,0,1-.156-.51,1.229,1.229,0,0,1,.1-.594c.073-.137.17-.162.253-.067l1.754,1.911a1.07,1.07,0,0,1,.148.714c-.024.3-.127.51-.246.51Z" transform="translate(-1.08 -18.515)" fill="#fff"/>
              <path id="Path_1436" data-name="Path 1436" d="M9.45,37.437c-.248,0-.45-.36-.45-.8V26.3c0-.439.2-.8.45-.8s.45.36.45.8V36.642C9.9,37.081,9.7,37.437,9.45,37.437Z" transform="translate(-6.742 -19.129)" fill="#fff"/>
              <path id="Path_1437" data-name="Path 1437" d="M.287,41.99c-.14,0-.259-.248-.282-.586A1.038,1.038,0,0,1,.2,40.631l2.577-2.095c.15-.122.312.076.36.442a1.124,1.124,0,0,1-.18.884L.378,41.956a.14.14,0,0,1-.09.033Z" transform="translate(0.006 -21.294)" fill="#fff"/>
              <path id="Path_1438" data-name="Path 1438" d="M.45,45.479c-.248,0-.45-.36-.45-.8V42.3c0-.436.2-.8.45-.8s.45.36.45.8v2.387C.9,45.122.7,45.479.45,45.479Z" transform="translate(0.006 -22.396)" fill="#fff"/>
              <path id="Path_1439" data-name="Path 1439" d="M22.45,45.479c-.248,0-.45-.36-.45-.8V42.3c0-.439.2-.8.45-.8s.45.36.45.8v2.387C22.9,45.123,22.7,45.479,22.45,45.479Z" transform="translate(-12.09 -22.396)" fill="#fff"/>
              <path id="Path_1440" data-name="Path 1440" d="M10.352,46.092H.45c-.248,0-.45-.36-.45-.8s.2-.8.45-.8h9.9c.248,0,.45.36.45.8S10.6,46.092,10.352,46.092Z" transform="translate(0.006 -23.009)" fill="#fff"/>
              <path id="Path_1441" data-name="Path 1441" d="M58.25,22.271c-.248,0-.45-.36-.45-.8,0-1.319-.6-2.387-1.35-2.387-.248,0-.45-.36-.45-.8s.2-.8.45-.8c1.242,0,2.25,1.782,2.25,3.979C58.7,21.919,58.5,22.271,58.25,22.271Z" transform="translate(-30.784 -17.496)" fill="#fff"/>
              <path id="Path_1442" data-name="Path 1442" d="M34.454,19.092h-18c-.248,0-.45-.36-.45-.8s.2-.8.45-.8h18c.248,0,.45.36.45.8S34.706,19.092,34.454,19.092Z" transform="translate(-8.791 -17.496)" fill="#fff"/>
              <path id="Path_1443" data-name="Path 1443" d="M60.45,23.887c-.248,0-.45-.36-.45-.8v-.8c0-.439.2-.8.45-.8s.45.36.45.8v.8C60.9,23.531,60.7,23.887,60.45,23.887Z" transform="translate(-32.984 -18.313)" fill="#fff"/>
              <path id="Path_1444" data-name="Path 1444" d="M53.449,26.477c-.213,0-.4-.27-.441-.636a1.029,1.029,0,0,1,.264-.891l3.151-2.387a.3.3,0,0,1,.45.083,1.135,1.135,0,0,1,.18.742.867.867,0,0,1-.28.638l-3.151,2.387a.291.291,0,0,1-.173.064Z" transform="translate(-29.134 -18.515)" fill="#fff"/>
              <path id="Path_1445" data-name="Path 1445" d="M53.45,37.437c-.248,0-.45-.36-.45-.8V26.3c0-.439.2-.8.45-.8s.45.36.45.8V36.642C53.9,37.081,53.7,37.437,53.45,37.437Z" transform="translate(-29.134 -19.129)" fill="#fff"/>
              <path id="Path_1446" data-name="Path 1446" d="M57.5,42.478a.279.279,0,0,1-.142-.041L53.306,40.05a1.023,1.023,0,0,1-.285-1.008c.078-.418.334-.644.57-.5l4.051,2.387a.954.954,0,0,1,.307.885C57.914,42.2,57.723,42.483,57.5,42.478Z" transform="translate(-29.133 -21.783)" fill="#fff"/>
              <path id="Path_1447" data-name="Path 1447" d="M62.45,45.479c-.248,0-.45-.36-.45-.8V42.3c0-.439.2-.8.45-.8s.45.36.45.8v2.387C62.9,45.123,62.7,45.479,62.45,45.479Z" transform="translate(-34.084 -22.396)" fill="#fff"/>
              <path id="Path_1448" data-name="Path 1448" d="M40.454,46.092h-18c-.248,0-.45-.36-.45-.8s.2-.8.45-.8h18c.248,0,.45.36.45.8S40.706,46.092,40.454,46.092Z" transform="translate(-12.09 -23.009)" fill="#fff"/>
              <path id="Path_1449" data-name="Path 1449" d="M42.5,41.5c.248,0,.45.36.45.8Z" transform="translate(-14.136 -22.396)" fill="#fff"/>
              <path id="Path_1450" data-name="Path 1450" d="M31.454,40.092h-18c-.248,0-.45-.36-.45-.8s.2-.8.45-.8h18c.248,0,.45.36.45.8S31.706,40.092,31.454,40.092Z" transform="translate(-7.142 -21.784)" fill="#fff"/>
              <path id="Path_1451" data-name="Path 1451" d="M31.454,27.092h-18c-.248,0-.45-.36-.45-.8s.2-.8.45-.8h18c.248,0,.45.36.45.8S31.706,27.092,31.454,27.092Z" transform="translate(-7.142 -19.129)" fill="#fff"/>
            </g>
          </g>
        </g>
        <g id="Group_23863" data-name="Group 23863" transform="translate(18.351 10.039)">
          <path id="Path_1507" data-name="Path 1507" d="M354.373,610.853a3.232,3.232,0,0,0-3.232-3.232h-4.159a3.232,3.232,0,0,0-3.232,3.232h0a3.2,3.2,0,0,0,.2,1.11c.018.051.039.1.059.147.009.023.019.047.03.068s.023.05.035.075h0c.021.047.047.093.07.14l.07.122c.047.082.1.16.156.238s.1.135.16.2a3.225,3.225,0,0,0,2.342,1.128h4.385a3.225,3.225,0,0,0,2.342-1.128q.084-.1.16-.2c.056-.079.108-.156.157-.238l.07-.122c.024-.044.047-.094.07-.14h0l.035-.075.03-.068c.02-.047.041-.1.059-.147a3.2,3.2,0,0,0,.2-1.11v0ZM347,609.469h4.133a1.384,1.384,0,0,1,.023,2.769l-.916,0H347.89l-.916,0a1.384,1.384,0,0,1,.023-2.768Z" transform="translate(-343.75 -606.129)" fill="#152a3f"/>
          <path id="Path_1508" data-name="Path 1508" d="M354.373,610.853a3.232,3.232,0,0,0-3.232-3.232h-4.159a3.232,3.232,0,0,0-3.232,3.232h0a3.2,3.2,0,0,0,.2,1.11c.018.051.039.1.059.147.009.023.019.047.03.068s.023.05.035.075h0c.021.047.047.093.07.14l.07.122c.047.082.1.16.156.238s.1.135.16.2a3.225,3.225,0,0,0,2.342,1.128h4.385a3.225,3.225,0,0,0,2.342-1.128q.084-.1.16-.2c.056-.079.108-.156.157-.238l.07-.122c.024-.044.047-.094.07-.14h0l.035-.075.03-.068c.02-.047.041-.1.059-.147a3.2,3.2,0,0,0,.2-1.11v0ZM347,609.469h4.133a1.384,1.384,0,0,1,.023,2.769l-.916,0H347.89l-.916,0a1.384,1.384,0,0,1,.023-2.768Z" transform="translate(-330.347 -606.129)" fill="#152a3f"/>
          <line id="Line_484" data-name="Line 484" x2="0.739" y2="0.662" transform="translate(10.343 0.611)" fill="none" stroke="#152a3f" stroke-linecap="round" stroke-width="1"/>
          <line id="Line_485" data-name="Line 485" x1="0.739" y2="0.662" transform="translate(13.014 0.611)" fill="none" stroke="#152a3f" stroke-linecap="round" stroke-width="1"/>
          <line id="Line_486" data-name="Line 486" y1="0.852" transform="translate(12.07)" fill="none" stroke="#152a3f" stroke-linecap="round" stroke-width="1"/>
          <path id="Path_1507-2" data-name="Path 1507" d="M349.335,607.621h-2.353a3.232,3.232,0,0,0-3.232,3.232h0a3.2,3.2,0,0,0,.2,1.11c.018.051.039.1.059.147.009.023.019.047.03.068s.023.05.035.075h0c.021.047.047.093.07.14l.07.122c.047.082.1.16.156.238s.1.135.16.2a3.225,3.225,0,0,0,2.342,1.128h2.371C349.272,614.094,349.368,607.648,349.335,607.621ZM347,609.469h2.119a3.887,3.887,0,0,1,1.1,1.522c.221.49-.029,1.245-2.324,1.25l-.916,0a1.384,1.384,0,0,1,.023-2.768Z" transform="translate(-343.75 -606.129)" fill="#fff"/>
        </g>
      </g>
    </g>
  </g>
</svg>
