<svg xmlns="http://www.w3.org/2000/svg" xmlns:xlink="http://www.w3.org/1999/xlink" width="71" height="42" viewBox="0 0 71 42">
  <defs>
    <clipPath id="clip-path">
      <rect id="Rectangle_4945" data-name="Rectangle 4945" width="71" height="42"/>
    </clipPath>
  </defs>
  <g id="Temp_Sen_Unassign" clip-path="url(#clip-path)">
    <rect width="71" height="42" fill="#fff"/>
    <g id="Custom_Size_1" data-name="Custom Size – 1" clip-path="url(#clip-path)">
      <path id="Path_1754" data-name="Path 1754" d="M0,0H71V42H0Z" fill="#fafafa"/>
      <g id="noun-temperature-sensor-5708792" transform="translate(-3.566 4.984)">
        <path id="Path_947" data-name="Path 947" d="M45.629,45.1a10.153,10.153,0,0,0,0-15.457A1.023,1.023,0,1,0,44.3,31.2a8.1,8.1,0,0,1,0,12.344A1.023,1.023,0,1,0,45.629,45.1Z" transform="translate(-18.369 -14.919)" fill="rgba(20,42,63,0.24)"/>
        <path id="Path_948" data-name="Path 948" d="M41.44,40.239A6.124,6.124,0,0,0,38.459,35a1.017,1.017,0,0,0-1.4.356,1.007,1.007,0,0,0-.142.522,1.026,1.026,0,0,0,.5.878,4.057,4.057,0,0,1,0,6.972,1.024,1.024,0,1,0,1.054,1.756,6.144,6.144,0,0,0,2.976-5.244Z" transform="translate(-14.677 -17.788)" fill="rgba(20,42,63,0.24)"/>
        <path id="Path_949" data-name="Path 949" d="M33.392,44.1a1.893,1.893,0,0,1-1.12,1.727h0A1.8,1.8,0,0,1,31.5,46a1.894,1.894,0,1,1,.769-3.626h0a1.9,1.9,0,0,1,1.12,1.732Z" transform="translate(-10.839 -21.653)" fill="rgba(20,42,63,0.24)"/>
        <path id="Path_950" data-name="Path 950" d="M15.325,26.874a4.419,4.419,0,0,1-2.382-8.144.964.964,0,0,0,.441-.812V14.44h.826a.951.951,0,0,0,.963-.963.955.955,0,0,0-.394-.774.972.972,0,0,0-.569-.185h-.826V10.895h.826a.94.94,0,0,0,.569-.185.963.963,0,0,0-.569-1.742h-.826V7.34h.826a.961.961,0,1,0,0-1.922h-.826V4.868a1.943,1.943,0,1,1,3.887,0V17.919a.964.964,0,0,0,.441.812,4.324,4.324,0,0,1,.93.8,3.48,3.48,0,0,1,1.941-.631,6.307,6.307,0,0,0-1.391-1.476V4.868a3.865,3.865,0,1,0-7.731,0V17.425A6.342,6.342,0,1,0,20.583,26a3.5,3.5,0,0,1-1.936-.626A4.421,4.421,0,0,1,15.325,26.874Z" fill="#142a3f"/>
        <path id="Path_951" data-name="Path 951" d="M21,38.828a3.523,3.523,0,0,0,.456,1.737A2.838,2.838,0,0,1,16.5,37.988a2.791,2.791,0,0,1,1.775-1.832l.033-.014V33.076a.906.906,0,0,1,.906-.906h0a.906.906,0,0,1,.906.906v3.066l.081.028a2.858,2.858,0,0,1,1.253.925A3.519,3.519,0,0,0,21,38.828Z" transform="translate(-3.886 -16.377)" fill="#142a3f"/>
      </g>
    </g>
  </g>
</svg>
