<svg xmlns="http://www.w3.org/2000/svg" xmlns:xlink="http://www.w3.org/1999/xlink" width="71" height="42" viewBox="0 0 71 42">
  <defs>
    <clipPath id="clip-path">
      <rect id="Rectangle_4945" data-name="Rectangle 4945" width="71" height="42"/>
    </clipPath>
  </defs>
  <g id="Temp_Sen_Assign" clip-path="url(#clip-path)">
    <rect width="71" height="42" fill="#fff"/>
    <g id="Custom_Size_1" data-name="Custom Size – 1" clip-path="url(#clip-path)">
      <path id="Path_1754" data-name="Path 1754" d="M0,0H71V42H0Z" fill="#fafafa"/>
      <g id="noun-temperature-sensor-5708792" transform="translate(-3.561 4.99)">
        <path id="Path_947" data-name="Path 947" d="M45.629,45.089a10.148,10.148,0,0,0,0-15.45A1.023,1.023,0,1,0,44.3,31.194a8.1,8.1,0,0,1,0,12.338,1.023,1.023,0,1,0,1.328,1.556Z" transform="translate(-18.376 -14.924)" fill="#142a3f"/>
        <path id="Path_948" data-name="Path 948" d="M41.438,40.236A6.122,6.122,0,0,0,38.459,35a1.017,1.017,0,0,0-1.4.356,1.007,1.007,0,0,0-.142.522,1.026,1.026,0,0,0,.5.878,4.055,4.055,0,0,1,0,6.969,1.023,1.023,0,1,0,1.053,1.755A6.141,6.141,0,0,0,41.438,40.236Z" transform="translate(-14.683 -17.795)" fill="#142a3f"/>
        <path id="Path_949" data-name="Path 949" d="M33.391,44.1a1.892,1.892,0,0,1-1.12,1.727h0A1.8,1.8,0,0,1,31.5,46a1.893,1.893,0,1,1,.768-3.624h0A1.9,1.9,0,0,1,33.391,44.1Z" transform="translate(-10.844 -21.661)" fill="#142a3f"/>
        <path id="Path_950" data-name="Path 950" d="M15.322,26.863a4.417,4.417,0,0,1-2.381-8.14.963.963,0,0,0,.441-.811V14.434h.825a.951.951,0,0,0,.963-.963.954.954,0,0,0-.394-.773.972.972,0,0,0-.569-.185h-.825V10.891h.825a.94.94,0,0,0,.569-.185.963.963,0,0,0-.569-1.741h-.825V7.338h.825a.961.961,0,1,0,0-1.921h-.825v-.55a1.943,1.943,0,1,1,3.885,0V17.911a.963.963,0,0,0,.441.811,4.322,4.322,0,0,1,.93.8,3.479,3.479,0,0,1,1.94-.631,6.3,6.3,0,0,0-1.39-1.475V4.866a3.864,3.864,0,1,0-7.728,0V17.418a6.339,6.339,0,1,0,9.117,8.572,3.5,3.5,0,0,1-1.935-.626A4.419,4.419,0,0,1,15.322,26.863Z" fill="#142a3f"/>
        <path id="Path_951" data-name="Path 951" d="M20.993,38.825a3.522,3.522,0,0,0,.455,1.736A2.836,2.836,0,0,1,16.5,37.986a2.79,2.79,0,0,1,1.774-1.831l.033-.014V33.076a.906.906,0,0,1,.906-.906h0a.906.906,0,0,1,.906.906v3.064l.081.028a2.857,2.857,0,0,1,1.252.925,3.517,3.517,0,0,0-.455,1.731Z" transform="translate(-3.887 -16.384)" fill="#142a3f"/>
      </g>
    </g>
  </g>
</svg>
