<svg xmlns="http://www.w3.org/2000/svg" xmlns:xlink="http://www.w3.org/1999/xlink" width="71" height="42" viewBox="0 0 71 42">
  <defs>
    <clipPath id="clip-Custom_Size_1">
      <rect width="71" height="42"/>
    </clipPath>
  </defs>
  <g id="Custom_Size_1" data-name="Custom Size – 1" clip-path="url(#clip-Custom_Size_1)">
    <rect width="71" height="42" fill="#fff"/>
    <g id="Menu_Icon_Unassign" data-name="Menu Icon_Unassign" transform="translate(-6722.007 -1762.989)">
      <path id="Path_1507" data-name="Path 1507" d="M366.482,614.537a6.916,6.916,0,0,0-6.916-6.916h-1.54l-.036,0h-5.749l-.036,0h-1.54a6.916,6.916,0,0,0-6.916,6.916s0,0,0,.005v0a6.858,6.858,0,0,0,.419,2.375c.038.108.084.209.126.314.02.049.041.1.064.145s.049.107.075.16v0c.045.1.1.2.15.3l.15.262c.1.175.216.342.335.51q.163.22.343.426a6.9,6.9,0,0,0,5.011,2.413h.023c.073,0,.146,0,.219,0h8.9c.073,0,.146,0,.219,0h.023a6.9,6.9,0,0,0,5.011-2.413q.18-.206.343-.426c.119-.168.23-.335.335-.51l.15-.262c.052-.094.1-.2.15-.3v0q.038-.079.075-.16c.022-.048.044-.1.064-.145.042-.1.087-.206.126-.314a6.856,6.856,0,0,0,.419-2.375v-.007Zm-15.788-2.962,4.422,0,4.422,0a2.965,2.965,0,0,1,.472,5.893,3,3,0,0,1-.423.031l-1.961.006h-.343l-.039,0h-4.254l-.039,0h-.343l-1.961-.006a2.962,2.962,0,0,1,.049-5.924Z" transform="translate(6387.257 1169.56)" fill="#152a3f"/>
      <path id="Path_1508" data-name="Path 1508" d="M366.482,614.537a6.916,6.916,0,0,0-6.916-6.916h-1.54l-.036,0h-5.749l-.036,0h-1.54a6.916,6.916,0,0,0-6.916,6.916s0,0,0,.005v0a6.858,6.858,0,0,0,.419,2.375c.038.108.084.209.126.314.02.049.041.1.064.145s.049.107.075.16v0c.045.1.1.2.15.3l.15.262c.1.175.216.342.335.51q.163.22.343.426a6.9,6.9,0,0,0,5.011,2.413h.023c.073,0,.146,0,.219,0h8.9c.073,0,.146,0,.219,0h.023a6.9,6.9,0,0,0,5.011-2.413q.18-.206.343-.426c.119-.168.23-.335.335-.51l.15-.262c.052-.094.1-.2.15-.3v0q.038-.079.075-.16c.022-.048.044-.1.064-.145.042-.1.087-.206.126-.314a6.856,6.856,0,0,0,.419-2.375v-.007Zm-15.788-2.962,4.422,0,4.422,0a2.965,2.965,0,0,1,.472,5.893,3,3,0,0,1-.423.031l-1.961.006h-.343l-.039,0h-4.254l-.039,0h-.343l-1.961-.006a2.962,2.962,0,0,1,.049-5.924Z" transform="translate(6415.938 1169.56)" fill="#152a3f"/>
      <line id="Line_484" data-name="Line 484" x2="1.582" y2="1.417" transform="translate(6753.14 1775.296)" fill="none" stroke="#152a3f" stroke-linecap="round" stroke-width="1"/>
      <line id="Line_485" data-name="Line 485" x1="1.582" y2="1.417" transform="translate(6758.854 1775.296)" fill="none" stroke="#152a3f" stroke-linecap="round" stroke-width="1"/>
      <line id="Line_486" data-name="Line 486" y1="1.824" transform="translate(6756.834 1773.989)" fill="none" stroke="#152a3f" stroke-linecap="round" stroke-width="1"/>
    </g>
  </g>
</svg>
