<svg xmlns="http://www.w3.org/2000/svg" width="57.675" height="22.055" viewBox="0 0 57.675 22.055">
  <g id="Group_12" data-name="Group 12" transform="translate(0)">
    <g id="Group_11" data-name="Group 11" transform="translate(0 0)">
      <g id="Group_10" data-name="Group 10" transform="translate(0)">
        <g id="Group_7" data-name="Group 7" transform="translate(0 0.006)">
          <g id="Group_6" data-name="Group 6">
            <path id="Path_16" data-name="Path 16" d="M-26.2,154.075a10.722,10.722,0,0,0-.256-2.36,11.022,11.022,0,0,0-2.973-5.433,10.974,10.974,0,0,0-7.793-3.229l-14.167.006a11.021,11.021,0,0,0-7.778,3.223,11.021,11.021,0,0,0-.01,15.586A10.95,10.95,0,0,0-51.4,165.1h11.69a.787.787,0,0,0,.563-.234.787.787,0,0,0-.006-1.113l-.223-.223a13.251,13.251,0,0,1-2.872-4.253.787.787,0,0,0-.729-.484l-8.411.006a4.726,4.726,0,0,1-4.726-4.726,4.726,4.726,0,0,1,4.726-4.726l14.211.006a4.723,4.723,0,0,1,4.72,4.721,3.228,3.228,0,0,0,3.128,3.128,3.149,3.149,0,0,0,2.06-.768A3.149,3.149,0,0,0-26.2,154.075Z" transform="translate(62.403 -143.053)" fill="#152a3f"/>
          </g>
        </g>
        <g id="Group_9" data-name="Group 9" transform="translate(21.448)">
          <g id="Group_8" data-name="Group 8">
            <path id="Path_17" data-name="Path 17" d="M206.312,154.02A11.022,11.022,0,0,0,195.29,143l-11.673-.006a.79.79,0,0,0-.546,1.358l.206.206a13.225,13.225,0,0,1,2.861,4.253.787.787,0,0,0,.729.484l8.378.006a4.726,4.726,0,1,1,0,9.452l-10.437-.006-.095.006-3.641-.011a4.723,4.723,0,0,1-4.72-4.72,3.228,3.228,0,0,0-3.128-3.128,3.139,3.139,0,0,0-3.14,3.14,10.928,10.928,0,0,0,.668,3.785c.061.173.134.334.2.5s.15.328.223.49.156.323.239.473l.239.418c.167.278.345.546.534.813a10.974,10.974,0,0,0,.751.907l.39.39.033.033.373.3c.128.117.284.217.429.362l.189.189.44.328.212.145.39.256.061.061a11.021,11.021,0,0,0,5.661,1.564H195.29A11.022,11.022,0,0,0,206.312,154.02Z" transform="translate(-170.085 -142.993)" fill="#152a3f"/>
          </g>
        </g>
      </g>
    </g>
  </g>
</svg>
