<svg id="Group_519" data-name="Group 519" xmlns="http://www.w3.org/2000/svg" width="38.644" height="38.643" viewBox="0 0 38.644 38.643">
  <g id="search_3_" data-name="search (3)">
    <path id="Path_450" data-name="Path 450" d="M22.944,0H4.428A4.425,4.425,0,0,0,0,4.428V29.385a4.425,4.425,0,0,0,4.428,4.428H17.534A11.492,11.492,0,0,1,15.3,26.97,11.682,11.682,0,0,1,26.97,15.3a3.365,3.365,0,0,1,.4.016V4.428A4.425,4.425,0,0,0,22.944,0ZM6.441,6.441h6.441a1.61,1.61,0,1,1,0,3.22H6.441a1.61,1.61,0,1,1,0-3.22Zm8.051,16.1H6.441a1.61,1.61,0,0,1,0-3.22h8.051a1.61,1.61,0,0,1,0,3.22ZM20.932,16.1H6.441a1.61,1.61,0,0,1,0-3.22H20.932a1.61,1.61,0,1,1,0,3.22Z" fill="#001e38"/>
    <path id="Path_451" data-name="Path 451" d="M19.953,28.406a8.453,8.453,0,1,1,8.453-8.453A8.462,8.462,0,0,1,19.953,28.406Zm0-13.686a5.233,5.233,0,1,0,5.233,5.233A5.239,5.239,0,0,0,19.953,14.72Z" transform="translate(7.017 7.017)" fill="#001e38"/>
    <path id="Path_452" data-name="Path 452" d="M25.593,27.2a1.606,1.606,0,0,1-1.138-.472L19.222,21.5A1.61,1.61,0,1,1,21.5,19.222l5.233,5.233A1.61,1.61,0,0,1,25.593,27.2Z" transform="translate(11.44 11.44)" fill="#001e38"/>
  </g>
</svg>
