<svg xmlns="http://www.w3.org/2000/svg" width="384" height="448" viewBox="0 0 384 448">
  <g id="_9035535_trash_outline_icon" data-name="9035535_trash_outline_icon" transform="translate(-64 -32)">
    <path id="Path_1427" data-name="Path 1427" d="M112,112l20,304.849c.95,17.615,14.4,30.485,32,30.485H348c17.67,0,30.87-12.87,32-30.485L400,112" transform="translate(0 16.667)" fill="none" stroke="#09263f" stroke-linecap="round" stroke-linejoin="round" stroke-width="32"/>
    <line id="Line_291" data-name="Line 291" x2="352" transform="translate(80 87)" stroke="#09263f" stroke-linecap="round" stroke-miterlimit="10" stroke-width="32"/>
    <path id="Path_1428" data-name="Path 1428" d="M192,87V62.625h0c-.019-3.882,2.5-7.609,7.009-10.354A33.218,33.218,0,0,1,216,48h80a33.218,33.218,0,0,1,16.991,4.271c4.5,2.745,7.027,6.472,7.009,10.354h0V87" fill="none" stroke="#09263f" stroke-linecap="round" stroke-linejoin="round" stroke-width="32"/>
    <line id="Line_292" data-name="Line 292" y2="224" transform="translate(256 176)" fill="none" stroke="#09263f" stroke-linecap="round" stroke-linejoin="round" stroke-width="32"/>
    <line id="Line_293" data-name="Line 293" x2="8" y2="224" transform="translate(184 176)" fill="none" stroke="#09263f" stroke-linecap="round" stroke-linejoin="round" stroke-width="32"/>
    <line id="Line_294" data-name="Line 294" x1="8" y2="224" transform="translate(320 176)" fill="none" stroke="#09263f" stroke-linecap="round" stroke-linejoin="round" stroke-width="32"/>
  </g>
</svg>
