<svg xmlns="http://www.w3.org/2000/svg" xmlns:xlink="http://www.w3.org/1999/xlink" width="30" height="30" viewBox="0 0 30 30">
  <defs>
    <clipPath id="clip-iPhone_14_Pro_5">
      <rect width="30" height="30"/>
    </clipPath>
  </defs>
  <g id="iPhone_14_Pro_5" data-name="iPhone 14 Pro – 5" clip-path="url(#clip-iPhone_14_Pro_5)">
    <g id="ic_2" transform="translate(-7.696 -7.696)">
      <path id="Path_9867" data-name="Path 9867" d="M34.741,15.209a.653.653,0,0,0,.651-.651V10.651A.653.653,0,0,0,34.741,10H30.835a.653.653,0,0,0-.651.651v1.3H15.209v-1.3A.653.653,0,0,0,14.558,10H10.651a.653.653,0,0,0-.651.651v3.906a.653.653,0,0,0,.651.651h1.3V30.183h-1.3a.653.653,0,0,0-.651.651v3.906a.653.653,0,0,0,.651.651h3.906a.653.653,0,0,0,.651-.651v-1.3H30.183v1.3a.653.653,0,0,0,.651.651h3.906a.653.653,0,0,0,.651-.651V30.835a.653.653,0,0,0-.651-.651h-1.3V15.209Zm-2.6,14.975h-1.3a.653.653,0,0,0-.651.651v1.3H15.209v-1.3a.653.653,0,0,0-.651-.651h-1.3V15.209h1.3a.653.653,0,0,0,.651-.651v-1.3H30.183v1.3a.653.653,0,0,0,.651.651h1.3Z"/>
    </g>
  </g>
</svg>
