<svg xmlns="http://www.w3.org/2000/svg" width="215.004" height="27.626" viewBox="0 0 215.004 27.626">
  <path id="Path_314" data-name="Path 314" d="M13.794-20.634a1.3,1.3,0,0,1,1.292-.874,1.222,1.222,0,0,1,1.254.874L24.13,0h4.978L20.444-22.8c-.912-2.394-2.66-3.306-5.32-3.306-2.7,0-4.446.912-5.4,3.306L.722,0h4.94Zm18.886.57V0h4.028V-20.064Zm0-7.562v4.674h4.066v-4.674ZM45.3-20.064c-2.014,0-2.812.76-2.812,3.116V0h4.028V-15.618c0-.38.152-.57.494-.57H57.19V0h4.066V-16.188h4.712c4.218,0,6.042,1.748,6.042,4.9V0h4.066V-11.286c0-5.548-3.344-8.778-10.146-8.778Zm41.99,0c-4.674,0-6.536,2.242-6.536,5.852,0,3.078,1.368,5.852,6.916,5.852h4.75c2.014,0,2.85.646,2.85,2.242,0,1.558-.76,2.2-2.622,2.2H80.978V0H92.644c4.712,0,6.574-2.508,6.574-6.08,0-3.116-1.406-5.662-6.954-5.662H87.552c-2.242,0-2.85-.76-2.85-2.166,0-1.52.76-2.28,2.622-2.28h11.1v-3.876Zm33.63-5.586c-5.32,0-7.41,2.888-7.41,6.8,0,3.306,1.482,6.84,7.79,6.84h7.03c4.636,0,5.776,2.432,5.776,4.826,0,2.812-1.52,4.864-5.358,4.864H113.962V0h14.744c5.548,0,7.714-3,7.714-7.106,0-3.5-1.558-7.106-8.17-7.106h-6.992c-4.37,0-5.434-2.318-5.434-4.6,0-2.622,1.406-4.522,5.016-4.522h13.186V-25.65Zm21.2,6.156v2.09h12.046c3.534,0,4.9,1.862,4.9,4.37V-11.1H147.44c-4.788,0-6.536,1.938-6.536,5.358C140.9-2.166,142.8,0,147.4,0h10.526c2.508,0,3.23-.95,3.23-3.154v-9.918c0-3.648-1.976-6.422-6.992-6.422ZM157.51-2.052H147.4c-3.116,0-4.408-1.444-4.408-3.762,0-2.242,1.216-3.534,4.484-3.534h11.59v5.814C159.068-2.546,158.65-2.052,157.51-2.052Zm10.83-17.442v2.09h12.046c3.534,0,4.9,1.862,4.9,4.37V-11.1H173.66c-4.788,0-6.536,1.938-6.536,5.358,0,3.572,1.9,5.738,6.5,5.738h10.526c2.508,0,3.23-.95,3.23-3.154v-9.918c0-3.648-1.976-6.422-6.992-6.422ZM183.73-2.052H173.622c-3.116,0-4.408-1.444-4.408-3.762,0-2.242,1.216-3.534,4.484-3.534h11.59v5.814C185.288-2.546,184.87-2.052,183.73-2.052Zm16.492-23.6c-5.32,0-7.41,2.888-7.41,6.8,0,3.306,1.482,6.84,7.79,6.84h7.03c4.636,0,5.776,2.432,5.776,4.826,0,2.812-1.52,4.864-5.358,4.864H193.268V0h14.744c5.548,0,7.714-3,7.714-7.106,0-3.5-1.558-7.106-8.17-7.106h-6.992c-4.37,0-5.434-2.318-5.434-4.6,0-2.622,1.406-4.522,5.016-4.522h13.186V-25.65Z" transform="translate(-0.722 27.626)" fill="#001e38"/>
</svg>
