<svg xmlns="http://www.w3.org/2000/svg" width="20.243" height="20.243" viewBox="0 0 20.243 20.243">
  <g id="_icons" transform="translate(0 0)">
    <g id="Group_11" data-name="Group 11">
      <path id="Path_311" data-name="Path 311" d="M20.994,11.374H15.821l1.462-1.462a1.113,1.113,0,0,0-1.574-1.574l-3.374,3.374c-.112.112-.225.225-.225.337a1.232,1.232,0,0,0,0,.9c.112.112.112.225.225.337l3.374,3.374a1.087,1.087,0,0,0,1.574,0,1.087,1.087,0,0,0,0-1.574l-1.462-1.462h5.173A1.063,1.063,0,0,0,22.118,12.5,1.063,1.063,0,0,0,20.994,11.374Z" transform="translate(-1.875 -2.377)" fill="#fff"/>
      <path id="Path_312" data-name="Path 312" d="M17.058,19.982a8.206,8.206,0,0,1-3.936,1.012,7.872,7.872,0,1,1,0-15.745,8.206,8.206,0,0,1,3.936,1.012,1.158,1.158,0,1,0,1.125-2.024A11.212,11.212,0,0,0,13.121,3a10.122,10.122,0,1,0,5.061,18.893,1.245,1.245,0,0,0,.45-1.574A1.211,1.211,0,0,0,17.058,19.982Z" transform="translate(-3 -3)" fill="#fff"/>
    </g>
  </g>
</svg>
