<svg xmlns="http://www.w3.org/2000/svg" width="68.95" height="11.711" viewBox="0 0 68.95 11.711">
  <g id="Group_3" data-name="Group 3" transform="translate(-1405 -854.913)">
    <path id="Path_306" data-name="Path 306" d="M395.076,77.235v2.513h-5.764c-.72,0-1.072.385-1.072.955,0,.536.3,1,1.274,1h2.379c3.183,0,3.921,1.726,3.921,3.4,0,1.994-1.055,3.435-3.7,3.435h-6.2V86.031h6.283c.737,0,1.106-.4,1.106-.989,0-.553-.318-1.056-1.324-1.056H389.6c-3.133,0-3.887-1.725-3.887-3.367,0-1.961,1.056-3.384,3.686-3.384Z" transform="translate(1019.29 777.879)" fill="#001e38"/>
    <path id="Path_307" data-name="Path 307" d="M420.045,77.235c3.284,0,5.11,1.876,5.11,5.68,0,3.786-1.809,5.629-5.11,5.629H418.5c-3.3,0-5.11-1.843-5.11-5.629,0-3.8,1.826-5.68,5.11-5.68ZM418.5,79.748c-1.876,0-2.58.9-2.58,3.15,0,2.262.7,3.133,2.58,3.133h1.542c1.893,0,2.58-.871,2.58-3.133,0-2.245-.687-3.15-2.58-3.15Z" transform="translate(1004.492 777.879)" fill="#001e38"/>
    <path id="Path_308" data-name="Path 308" d="M448.268,77.235v7.188c0,.871.418,1.608,2.01,1.608H454.4v2.513h-4.289c-3.15,0-4.39-1.726-4.39-4.1v-7.2Z" transform="translate(987.212 777.879)" fill="#001e38"/>
    <path id="Path_309" data-name="Path 309" d="M472.42,77.235V84.64c0,.855.419,1.39,1.475,1.39H475.6c1.038,0,1.457-.536,1.457-1.39V77.235h2.48v7.623c0,2.43-1.291,3.686-3.736,3.686h-2.211c-2.463,0-3.753-1.256-3.753-3.686V77.235Z" transform="translate(974.319 777.879)" fill="#001e38"/>
    <path id="Path_310" data-name="Path 310" d="M497.683,88.313h-2.714l3.15-9.1c.5-1.508,1.307-2.412,3.049-2.412a2.559,2.559,0,0,1,2.865,2.764v6.049a.411.411,0,0,0,.4.452.468.468,0,0,0,.435-.318l2.3-6.535c.486-1.508,1.29-2.412,3.033-2.412a2.551,2.551,0,0,1,2.865,2.764v8.746h-2.53V79.7a.4.4,0,0,0-.4-.452.442.442,0,0,0-.419.318l-2.3,6.535a2.948,2.948,0,0,1-3.05,2.412A2.567,2.567,0,0,1,501.5,85.75V79.7a.411.411,0,0,0-.4-.452.463.463,0,0,0-.436.318Z" transform="translate(960.887 778.11)" fill="#001e38"/>
  </g>
</svg>
